<?xml version="1.0" encoding="UTF-8" standalone="no"?>
<!DOCTYPE svg  PUBLIC '-//W3C//DTD SVG 1.1//EN'  'http://www.w3.org/Graphics/SVG/1.1/DTD/svg11.dtd'>
<svg xmlns="http://www.w3.org/2000/svg">
<defs>
<font id="MillerHeadline-BoldItalic-BoldItalic" horiz-adv-x="470">
<font-face underline-position="-113" font-weight="550" descent="-200" panose-1="2 0 6 3 9 0 0 2 0 4" units-per-em="1000" unicode-range="U+0020-25CA" bbox="-218 -236 1111 947" x-height="471" underline-thickness="20" font-family="MillerHeadline" ascent="800" font-style="italic" cap-height="683"/>
<missing-glyph horiz-adv-x="1000"/>
<glyph glyph-name=".notdef" horiz-adv-x="1000"/>
<glyph glyph-name=".null" horiz-adv-x="0"/>
<glyph glyph-name="nonmarkingreturn" horiz-adv-x="333"/>
<glyph glyph-name="space" horiz-adv-x="180" unicode=" "/>
<glyph glyph-name="exclam" horiz-adv-x="287" unicode="!" d="M168 65q0 -32 -22 -53t-54 -21t-54 21t-22 53t22 54t54 22t54 -22t22 -54zM309 619q0 -15 -5 -32q-19 -72 -167 -378l-23 6q31 351 47 411q8 33 30.5 53.5t49.5 20.5q32 0 50 -22.5t18 -58.5z"/>
<glyph glyph-name="quotedbl" horiz-adv-x="330" unicode='&quot;' d="M253 682q0 -17 -14.5 -46t-45 -82t-47.5 -85l-20 6q1 27 2 84.5t2.5 89t4.5 44.5q5 22 23 37.5t41 15.5q25 0 39.5 -19t14.5 -45zM404 682q0 -17 -14.5 -46t-45 -82t-47.5 -85l-20 6q1 27 2 84.5t2.5 89t4.5 44.5q5 22 23 37.5t41 15.5q25 0 39.5 -19t14.5 -45z"/>
<glyph glyph-name="numbersign" horiz-adv-x="459" unicode="#" d="M309 385l-99 -26l-27 -109l99 27zM469 544l-30 -123l-100 -27l-27 -109l98 27l-30 -123l-99 -27l-42 -169h-28l40 161l-99 -27l-33 -134h-28l31 126l-98 -27l31 123l98 27l27 109l-97 -27l31 123l97 27l38 153h28l-36 -145l98 26l30 119h28l-27 -110z"/>
<glyph glyph-name="dollar" horiz-adv-x="529" unicode="$" d="M381 169q0 69 -59 93l-60 -241q57 12 88 54.5t31 93.5zM298 272q-8 3 -21.5 8t-19.5 7l-67 -268q20 -2 33 -2h11zM396 663q-13 4 -34 4h-10l-61 -244q7 -2 21 -7t20 -8zM323 663q-53 -12 -82 -53.5t-29 -87.5q0 -68 54 -90zM560 567q0 -40 -22 -64t-51 -24q-28 0 -47 17 t-19 45q0 20 34 73q-9 29 -34 41l-64 -256q64 -22 100.5 -67t36.5 -104q0 -95 -69 -160t-171 -77l-29 -117h-27l29 115q-2 0 -8 -0.5t-9 -0.5q-16 0 -28 3l-29 -117h-27l30 120q-66 11 -106.5 44t-40.5 91q0 41 22.5 70t58.5 29q30 0 48 -19t18 -48q0 -41 -46 -76 q14 -45 55 -59l67 270q-65 21 -99 64t-34 101q0 86 63 152.5t169 78.5l17 66h27l-16 -64h10q12 0 34 -2l17 66h27l-18 -70q56 -10 93.5 -41.5t37.5 -79.5z"/>
<glyph glyph-name="percent" horiz-adv-x="771" unicode="%" d="M643 310q0 65 -35 65q-44 0 -80.5 -104t-36.5 -197q0 -65 36 -65q43 0 79.5 105t36.5 196zM330 609q0 65 -36 65q-43 0 -79.5 -105t-36.5 -196q0 -65 35 -65q44 0 80.5 104t36.5 197zM742 256q0 -109 -68.5 -191.5t-153.5 -82.5q-62 0 -95 39.5t-33 103.5q0 108 67 192.5 t156 84.5q63 0 95 -40.5t32 -105.5zM696 680l-547 -705l-27 22l545 705zM429 558q0 -108 -67 -192.5t-156 -84.5q-63 0 -95 40.5t-32 105.5q0 109 68.5 191.5t153.5 82.5q62 0 95 -39.5t33 -103.5z"/>
<glyph glyph-name="ampersand" horiz-adv-x="627" unicode="&amp;" d="M321 134q-14 24 -60 97.5t-71 119.5q-28 -24 -47 -70t-19 -101q0 -53 23 -85.5t66 -32.5q57 0 108 72zM380 579q0 37 -12.5 62.5t-34.5 25.5q-34 0 -52.5 -34.5t-18.5 -77.5q0 -57 38 -133q80 51 80 157zM640 345q0 -26 -17 -49.5t-50 -23.5q-28 0 -40 14.5t-20 45.5 q-31 -10 -93 -109q39 -66 59 -112t20 -88q0 -109 -73 -178.5t-190 -70.5l-15 27q163 4 163 154q0 31 -15 75.5t-34 78.5q-45 -66 -91 -95.5t-102 -29.5q-70 0 -112 41.5t-42 109.5q0 75 51.5 136t137.5 106q-26 49 -33.5 78t-7.5 62q0 73 59 128t148 55q63 0 103 -31t40 -83 q0 -67 -43.5 -110t-130.5 -77q9 -16 93 -151q22 41 36 64t35.5 51.5t43.5 41.5t47 13q73 0 73 -73z"/>
<glyph glyph-name="quotesingle" horiz-adv-x="179" unicode="&apos;" d="M253 682q0 -17 -14.5 -46t-45 -82t-47.5 -85l-20 6q1 27 2 84.5t2.5 89t4.5 44.5q5 22 23 37.5t41 15.5q25 0 39.5 -19t14.5 -45z"/>
<glyph glyph-name="parenleft" horiz-adv-x="309" unicode="(" d="M396 718q-155 -111 -236.5 -263t-81.5 -300q0 -180 105 -291l-41 -24q-60 61 -93 146t-33 180q0 152 91.5 306t259.5 276z"/>
<glyph glyph-name="parenright" horiz-adv-x="309" unicode=")" d="M296 422q0 -152 -91.5 -306t-259.5 -276l-29 30q155 111 236.5 263t81.5 300q0 180 -105 291l41 24q60 -61 93 -146t33 -180z"/>
<glyph glyph-name="asterisk" horiz-adv-x="343" unicode="*" d="M398 633q0 -30 -36 -30q-12 0 -29.5 1t-24.5 1q-20 0 -42 -5q22 -18 50.5 -32t40.5 -23t12 -24q0 -14 -11 -24t-24 -10q-15 0 -23 13.5t-20.5 40.5t-30.5 47q-3 -24 -3 -40t2.5 -33.5t2.5 -21.5q0 -15 -9.5 -24t-22.5 -9q-15 0 -25 9t-10 22q0 15 20 40.5t34 60.5 q-32 -10 -61.5 -32t-45.5 -22q-11 0 -19 11t-8 25q0 29 37 29q9 0 24 -1t24 -1q20 0 49 4q-23 19 -52.5 34t-42.5 24t-13 23t10 25t24 11q15 0 24.5 -14.5t23.5 -42.5t32 -48q2 28 2 34q0 14 -2 30.5t-2 23.5q0 40 32 40q17 0 26.5 -9.5t9.5 -21.5q0 -14 -21 -40t-34 -60 q29 11 58.5 32t45.5 21q11 0 19.5 -9.5t8.5 -24.5z"/>
<glyph glyph-name="plus" d="M454 232h-180v-183h-60v183h-180v56h180v183h60v-183h180v-56z" unicode="+"/>
<glyph glyph-name="comma" horiz-adv-x="237" unicode="," d="M174 63q0 -145 -184 -230l-10 22q50 26 87.5 65t46.5 82h-22q-75 0 -75 62q0 37 24.5 60.5t61.5 23.5q71 0 71 -85z"/>
<glyph glyph-name="hyphen" horiz-adv-x="276" unicode="-" d="M269 299l-24 -92h-227l24 92h227z"/>
<glyph glyph-name="period" horiz-adv-x="237" unicode="." d="M173 67q0 -33 -22.5 -56t-55.5 -23q-32 0 -55 23t-23 56q0 32 23 55t55 23q33 0 55.5 -23t22.5 -55z"/>
<glyph glyph-name="slash" horiz-adv-x="329" unicode="/" d="M408 732l-472 -945l-44 21l471 945z"/>
<glyph glyph-name="zero" horiz-adv-x="557" unicode="0" d="M428 558q0 112 -56 112q-49 0 -97.5 -97.5t-76 -224.5t-27.5 -225q0 -110 56 -110q51 0 99.5 101.5t75 227t26.5 216.5zM569 467q0 -119 -49 -231.5t-130.5 -183t-169.5 -70.5q-91 0 -140.5 64t-49.5 170q0 119 49 231.5t130.5 183t169.5 70.5q92 0 141 -64t49 -170z"/>
<glyph glyph-name="one" horiz-adv-x="377" unicode="1" d="M398 697q-29 -69 -52 -159l-109 -432q-6 -24 -6 -34q0 -25 16 -34q21 -12 68 -15l-6 -23h-337l6 23q51 3 71 11q31 10 41 48l127 509h-15q-51 0 -98 66l12 16q37 -21 113 -21q68 0 138 45h31z"/>
<glyph glyph-name="two" horiz-adv-x="482" unicode="2" d="M506 525q0 -99 -91 -191.5t-295 -204.5l-2 -7h222q51 0 120 107l21 -10l-108 -219h-407l30 81q89 59 138 98.5t103 97.5q58 61 90.5 140t32.5 145q0 55 -21.5 81.5t-53.5 26.5q-24 0 -48.5 -16t-36.5 -43q3 -8 12.5 -22.5t15.5 -29t6 -32.5q0 -37 -19 -66t-64 -29 q-36 0 -54.5 24.5t-18.5 60.5q0 71 64 127.5t160 56.5q94 0 149 -47t55 -129z"/>
<glyph glyph-name="three" horiz-adv-x="487" unicode="3" d="M498 568q0 -70 -61.5 -119t-162.5 -66l-8 -11q15 3 29 3q66 0 117.5 -34.5t51.5 -109.5q0 -106 -88.5 -177.5t-207.5 -71.5q-82 0 -136 37t-54 105q0 48 28 78.5t68 30.5q30 0 49 -19t19 -48q0 -25 -9.5 -41.5t-21 -23.5t-21 -16t-9.5 -21q0 -20 20 -36.5t53 -16.5 q62 0 112 80.5t50 172.5q0 79 -51 79q-37 0 -81 -47l-21 40q97 57 142.5 111.5t45.5 130.5q0 44 -17 69t-46 25q-25 0 -44 -14t-27 -34q0 -8 9.5 -30t9.5 -45q0 -32 -21 -58.5t-56 -26.5q-32 0 -50 21t-18 55q0 65 65.5 113t155.5 48q84 0 135 -36t51 -97z"/>
<glyph glyph-name="four" horiz-adv-x="509" unicode="4" d="M309 563l-265 -290h192zM523 360l-57 -227h-22q5 33 5 51q0 43 -34 43h-50l-31 -121q-6 -20 -6 -34q0 -25 16 -34q19 -12 60 -15l-6 -23h-316l6 23q38 2 61 11q13 5 24.5 18.5t15.5 29.5l36 145h-232l12 51l384 421h94l-107 -426h44q32 0 51 29q22 33 29 58h23z"/>
<glyph glyph-name="five" horiz-adv-x="457" unicode="5" d="M536 689q-69 -88 -143 -122.5t-162 -34.5q-44 0 -70 6l-58 -162q63 55 152 55q81 0 129.5 -42.5t48.5 -119.5q0 -123 -83 -205t-208 -82q-74 0 -125.5 33t-51.5 92q0 38 23.5 64t57.5 26q29 0 48 -17t19 -46q0 -12 -3.5 -24.5t-6.5 -18.5t-12 -21t-11 -18q1 -15 16 -29.5 t41 -14.5q57 0 102 84.5t45 189.5q0 110 -77 110q-78 0 -134 -92l-24 10l134 385h22q11 -14 54 -28t90 -14q107 0 175 54z"/>
<glyph glyph-name="six" horiz-adv-x="515" unicode="6" d="M347 285q0 95 -60 95q-51 0 -88 -72.5t-37 -165.5q0 -61 16.5 -95.5t44.5 -34.5q32 0 57.5 30.5t39 75.5t20.5 88.5t7 78.5zM546 592q0 -33 -19.5 -56.5t-48.5 -23.5q-37 0 -55 22t-18 56q0 9 1.5 26.5t1.5 26.5q0 24 -25 24q-52 0 -103.5 -89.5t-82.5 -225.5l2 -1 q62 84 157 84q60 0 99 -45.5t39 -122.5q0 -112 -74.5 -198.5t-202.5 -86.5q-81 0 -132 61t-51 165q0 111 49 224.5t137.5 191t189.5 77.5q70 0 103 -33.5t33 -75.5z"/>
<glyph glyph-name="seven" horiz-adv-x="426" unicode="7" d="M557 682l-6 -32q-52 -58 -71 -79.5t-51 -62.5t-60 -87q-87 -141 -130 -323q-28 -116 -100 -116q-57 0 -57 59q0 83 149 281q27 35 52.5 66.5t41.5 50t49.5 56t53.5 60.5h-223q-29 0 -59.5 -27t-71.5 -93l-22 7l132 296h20l-3 -56h356z"/>
<glyph glyph-name="eight" horiz-adv-x="506" unicode="8" d="M356 162q0 70 -84 116q-66 35 -89 50q-75 -91 -75 -190q0 -51 27.5 -88.5t80.5 -37.5q59 0 99.5 43.5t40.5 106.5zM337 672q-52 0 -88.5 -41.5t-36.5 -91.5q0 -69 76 -112q56 -31 73 -41q64 80 64 176q0 46 -21.5 78t-66.5 32zM523 561q0 -65 -41 -113.5t-94 -77.5 q91 -63 91 -144q0 -109 -80.5 -177t-195.5 -68q-89 0 -145.5 42.5t-56.5 108.5q0 124 160 214q-69 61 -69 131q0 98 74.5 161.5t178.5 63.5q80 0 129 -41t49 -100z"/>
<glyph glyph-name="nine" horiz-adv-x="515" unicode="9" d="M400 569q0 46 -15 74t-42 28q-34 0 -61.5 -34t-42 -82.5t-22 -93.5t-7.5 -76q0 -80 58 -80q54 0 93 82t39 182zM525 494q0 -124 -49.5 -241t-142 -194t-203.5 -77q-65 0 -100.5 27t-35.5 69q0 38 22 63.5t57 25.5q61 0 61 -70q0 -7 -1.5 -23t-1.5 -26q0 -32 31 -32 q55 0 108.5 90.5t88.5 226.5l-3 2q-59 -85 -158 -85q-58 0 -95.5 42t-37.5 112q0 51 18.5 102t52.5 95.5t90.5 72t125.5 27.5q78 0 125.5 -55t47.5 -152z"/>
<glyph glyph-name="colon" horiz-adv-x="318" unicode=":" d="M196 67q0 -33 -22.5 -56t-55.5 -23q-32 0 -55 23t-23 56q0 32 23 55t55 23q33 0 55.5 -23t22.5 -55zM274 389q0 -32 -22.5 -55t-54.5 -23q-33 0 -56 23t-23 55t23 55.5t56 23.5q32 0 54.5 -23.5t22.5 -55.5z"/>
<glyph glyph-name="semicolon" horiz-adv-x="318" unicode=";" d="M196 63q0 -145 -184 -230l-10 22q50 26 87.5 65t46.5 82h-22q-75 0 -75 62q0 37 24.5 60.5t61.5 23.5q71 0 71 -85zM274 389q0 -32 -22.5 -55t-54.5 -23q-33 0 -56 23t-23 55t23 55.5t56 23.5q32 0 54.5 -23.5t22.5 -55.5z"/>
<glyph glyph-name="less" d="M434 30l-385 205v50l385 205v-62l-318 -168l318 -168v-62z" unicode="&lt;"/>
<glyph glyph-name="equal" d="M438 153h-384v56h384v-56zM438 311h-384v56h384v-56z" unicode="="/>
<glyph glyph-name="greater" d="M445 235l-385 -205v62l318 168l-318 168v62l385 -205v-50z" unicode="&gt;"/>
<glyph glyph-name="question" horiz-adv-x="426" unicode="?" d="M213 65q0 -32 -22 -53t-54 -21t-54 21t-22 53t22 54t54 22t54 -22t22 -54zM457 542q0 -115 -125 -179q-82 -42 -114 -68.5t-32 -60.5q0 -11 7.5 -17.5t17.5 -6.5q52 0 68 76l28 -8q-9 -48 -37 -75t-65 -27q-45 0 -77.5 30t-32.5 74q0 93 132 161q59 30 83 57.5t24 77.5 q0 36 -21 61t-61 25q-47 0 -74.5 -30t-27.5 -66v-12q0 -2 0.5 -4t0.5 -3h5v7q2 25 18 41.5t41 16.5q28 0 44 -17.5t16 -45.5q0 -32 -21.5 -50t-55.5 -18q-31 0 -54.5 24t-23.5 63q0 52 41.5 92t111.5 40q84 0 134 -46.5t50 -111.5z"/>
<glyph glyph-name="at" horiz-adv-x="830" unicode="@" d="M535 332q-6 69 -37 69q-49 0 -83 -95.5t-34 -174.5q0 -57 20 -57q34 0 74 84zM792 119q-51 -153 -155 -222t-234 -69q-149 0 -243 91t-94 241q0 105 41 193t106 142.5t141 84.5t150 30q113 0 188.5 -67.5t75.5 -197.5q0 -75 -24.5 -146.5t-69.5 -118.5t-98 -47 q-44 0 -73.5 19.5t-33.5 55.5h-1q-41 -73 -96 -73q-38 0 -63.5 31t-25.5 89q0 55 29 119t79.5 110t104.5 46q42 0 54 -55h1l18 49h92l-95 -266q-12 -31 -12 -53q0 -42 32 -42q58 0 105.5 84t47.5 200q0 106 -67.5 165t-164.5 59q-57 0 -113.5 -28t-103.5 -78t-76.5 -130.5 t-29.5 -175.5q0 -144 72.5 -218t190.5 -74q102 0 187 62t137 198z"/>
<glyph glyph-name="A" horiz-adv-x="585" unicode="A" d="M336 272l-16 245l-146 -245h162zM574 23l-7 -23h-319l7 23q43 6 66 18q26 12 26 32q0 9 -4.5 81.5t-4.5 78.5h-187q-23 -40 -53 -96q-29 -52 -29 -68q0 -33 86 -46l-7 -23h-241l7 23q35 5 57 18q35 22 70 78q21 34 95 155.5t155 255.5t98 162h66q33 -494 38 -603 q2 -29 22 -47q17 -14 59 -19z"/>
<glyph glyph-name="B" horiz-adv-x="598" unicode="B" d="M418 224q0 59 -33 90.5t-88 31.5q-10 0 -31 -3q-38 -150 -62 -246l-6 -23q0 -20 22 -31t52 -11q61 0 103.5 58.5t42.5 133.5zM456 546q0 106 -82 106q-6 0 -30 -2l-69 -272h28q73 0 113 52t40 116zM610 554q0 -142 -196 -187v-6q64 -8 109 -45t45 -100q0 -104 -79 -160 t-223 -56h-324l6 23q54 7 70 13q29 10 38 48l124 489q7 25 7 39q0 20 -17 30q-20 12 -63 18l6 23h305q90 0 141 -34t51 -95z"/>
<glyph glyph-name="C" horiz-adv-x="555" unicode="C" d="M623 689l-62 -256h-26q-6 233 -130 233q-49 0 -92 -45.5t-70 -113.5t-42.5 -142.5t-15.5 -137.5q0 -186 116 -186q65 0 113 38t98 115l25 -16q-103 -193 -275 -193q-103 0 -169 72.5t-66 192.5q0 109 48.5 211.5t137.5 169t195 66.5q91 0 154 -45l32 37h29z"/>
<glyph glyph-name="D" horiz-adv-x="661" unicode="D" d="M515 458q0 91 -33.5 142t-94.5 51q-10 0 -42 -2l-133 -524q-6 -24 -6 -41q0 -52 70 -52q74 0 130 64t82.5 159.5t26.5 202.5zM671 423q0 -193 -121.5 -308t-298.5 -115h-304l6 23q44 3 64 11q29 11 39 49l124 490q7 25 7 38q0 21 -17 32q-22 14 -57 17l6 23h283 q35 0 70 -7.5t71.5 -26t64.5 -47t45.5 -75t17.5 -104.5z"/>
<glyph glyph-name="E" horiz-adv-x="566" unicode="E" d="M625 683l-45 -179h-24v8q-4 50 -19 90t-44 45q-32 5 -73 5h-74l-72 -282h44q54 0 86 28q32 29 59 96h25l-72 -285h-25q3 17 3 38q0 43 -10 63q-14 27 -72 27h-46l-57 -221q-7 -28 -7 -45q0 -23 17 -31.5t60 -8.5q97 0 124 24q61 55 123 154h23l-64 -209h-544l6 23 q55 7 70 13q29 12 39 49l124 487q7 30 7 41q0 20 -16 28q-30 15 -63 19l6 23h511z"/>
<glyph glyph-name="F" horiz-adv-x="529" unicode="F" d="M631 683l-46 -181h-23q-1 45 -17 92t-49 53q-32 5 -69 5h-81l-72 -286h46q52 0 83 27q36 32 60 98h25l-71 -291h-24q2 22 2 38q0 48 -10 68q-15 27 -71 27h-49l-58 -226q-7 -28 -7 -37q0 -20 18 -31q19 -11 68 -16l-6 -23h-333l6 23q62 11 64 12q30 12 39 48l124 490 q7 28 7 39q0 22 -16 29q-30 15 -63 19l7 23h516z"/>
<glyph glyph-name="G" horiz-adv-x="637" unicode="G" d="M658 304l-6 -24q-32 -4 -55 -13q-27 -11 -38 -50l-57 -226l-16 -6l-36 64q-114 -64 -199 -64q-98 0 -161 68t-63 188q0 81 29.5 162t80.5 146.5t128.5 106.5t165.5 41q95 0 156 -45l33 37h30l-62 -253h-26q-3 119 -32.5 174.5t-98.5 55.5q-56 0 -104.5 -45.5t-79 -115 t-47.5 -149t-17 -151.5q0 -87 25 -136t71 -49q71 0 118 95q25 90 25 115q0 24 -19 34q-22 13 -58 16l6 24h307z"/>
<glyph glyph-name="H" horiz-adv-x="722" unicode="H" d="M806 683l-6 -23q-39 -8 -57 -14q-28 -9 -39 -49l-125 -490q-7 -26 -7 -37q0 -20 17 -31q6 -4 28 -9.5t36 -6.5l-7 -23h-320l7 23q32 3 55 11q30 12 40 49l63 252h-226l-58 -228q-7 -30 -7 -39q0 -19 16 -29q18 -12 63 -16l-7 -23h-320l7 23q54 10 57 11q30 12 40 49 l124 490q7 25 7 38q0 21 -16 30q-27 16 -64 19l6 23h320l-6 -23q-47 -10 -57 -14q-27 -9 -38 -49l-57 -222h226l51 198q7 28 7 39q0 19 -16 29q-27 16 -62 19l6 23h319z"/>
<glyph glyph-name="I" horiz-adv-x="352" unicode="I" d="M437 683l-6 -23l-25 -5q-25 -5 -35 -9q-27 -9 -38 -49l-125 -490q-6 -24 -6 -38q0 -21 15 -30q17 -9 64 -16l-6 -23h-326l6 23q44 3 63 11q29 11 39 49l124 490q7 25 7 40q0 18 -16 28q-24 14 -65 19l6 23h324z"/>
<glyph glyph-name="J" horiz-adv-x="455" unicode="J" d="M554 683l-6 -23q-32 -4 -62 -15q-29 -10 -38 -49l-99 -391q-27 -105 -100 -164t-160 -59q-71 0 -107.5 34.5t-36.5 87.5q0 41 24 67.5t61 26.5q34 0 53 -22.5t19 -57.5q0 -29 -19.5 -54t-48.5 -37l1 -6q10 -6 28 -6q94 0 137 173l96 384q7 26 7 38q0 22 -16 31 q-21 13 -68 19l6 23h329z"/>
<glyph glyph-name="K" horiz-adv-x="663" unicode="K" d="M755 683l-6 -23q-85 -11 -140 -61q-27 -24 -197 -182q20 -49 57.5 -145.5t60.5 -154.5q23 -59 49 -79q17 -13 55 -15l-6 -23h-319l6 23q23 3 36.5 6t24.5 10.5t11 19.5q0 13 -11 52q-25 83 -84 213h-30l-55 -217q-7 -30 -7 -41q0 -20 14 -28t56 -15l-6 -23h-312l7 23 q3 1 16 2.5t25 4t17 4.5q29 11 39 49l124 490q7 25 7 40q0 18 -16 28q-21 13 -63 19l6 23h321l-6 -23q-41 -8 -59 -14q-27 -9 -38 -49l-63 -246h16q143 115 228 212q46 52 46 67q0 19 -66 30l6 23h256z"/>
<glyph glyph-name="L" horiz-adv-x="535" unicode="L" d="M535 216l-66 -216h-527l6 23q56 7 69 13q30 13 40 50l123 488q8 29 8 41q0 18 -16 27q-23 13 -69 18l7 23h329l-7 -23q-42 -7 -60 -13q-28 -10 -39 -49l-123 -481q-8 -32 -8 -50q0 -22 17 -29t59 -7q81 0 108 25q50 46 126 160h23z"/>
<glyph glyph-name="M" horiz-adv-x="815" unicode="M" d="M904 683l-6 -23q-41 -6 -64 -14q-27 -9 -38 -49l-123 -490q-7 -26 -7 -38q0 -18 15 -30q20 -13 66 -16l-6 -23h-333l6 23q58 9 68 14q32 15 41 51l131 524h-3l-347 -601h-39q0 27 -7 139l-29 452h-5l-105 -412q-15 -58 -15 -96q0 -25 11 -39q9 -11 33.5 -20t43.5 -12 l-6 -23h-257l6 23q57 8 83 26q34 23 63 136l90 352q9 38 9 58q0 23 -12 37q-19 24 -67 28l6 23h258l29 -451l211 366q21 37 39 85h260z"/>
<glyph glyph-name="N" horiz-adv-x="651" unicode="N" d="M765 683l-7 -23q-1 -1 -17.5 -4t-34.5 -8.5t-29 -13.5q-33 -23 -62 -136l-127 -501h-58l-218 560l-93 -367q-14 -52 -14 -90q0 -30 12 -46q9 -11 34 -20t40 -11l-6 -23h-255l6 23q58 9 83 26q33 23 62 136l86 335q10 40 10 60q0 23 -13 41q-20 28 -75 39l7 23h219 l187 -486l75 295q14 58 14 92q0 28 -12 44q-8 11 -34.5 20.5t-43.5 11.5l7 23h257z"/>
<glyph glyph-name="O" horiz-adv-x="640" unicode="O" d="M500 472q0 194 -91 194q-53 0 -99 -51.5t-73.5 -126.5t-43 -149.5t-15.5 -128.5q0 -193 93 -193q53 0 98.5 53t72.5 128.5t42.5 149.5t15.5 124zM651 428q0 -105 -45.5 -205t-136.5 -169.5t-205 -69.5q-103 0 -170 74t-67 196q0 109 47.5 210t138 168t200.5 67 q105 0 171.5 -73.5t66.5 -197.5z"/>
<glyph glyph-name="P" horiz-adv-x="551" unicode="P" d="M452 536q0 51 -23 84t-68 33h-15l-82 -321h20q86 0 127 57.5t41 146.5zM609 538q0 -114 -88 -176t-217 -62h-47l-50 -193q-7 -26 -7 -39q0 -19 16 -29q6 -4 29.5 -9.5t38.5 -6.5l-6 -23h-332l6 23q42 3 65 12q29 13 39 48l124 490q7 26 7 39q0 20 -16 29q-24 14 -63 19 l6 23h302q92 0 142.5 -39.5t50.5 -105.5z"/>
<glyph glyph-name="Q" horiz-adv-x="645" unicode="Q" d="M313 77q0 92 -54 92q-44 0 -73 -70q11 -40 31 -61t57 -21q16 0 36 6q0 8 1.5 26t1.5 28zM500 476q0 190 -92 190q-53 0 -98 -50t-72.5 -124.5t-43 -152.5t-15.5 -142q0 -16 2 -60q47 91 119 91q94 0 105 -126h3q39 73 65.5 180.5t26.5 193.5zM651 426q0 -120 -63 -233.5 t-166 -168.5q9 -59 39 -87.5t57 -28.5q39 0 59.5 23t33.5 66l23 -6q-16 -67 -66.5 -124t-121.5 -57q-66 0 -102.5 42t-36.5 124v12q-20 -4 -40 -4q-108 0 -174 75t-66 200q0 111 50 212t140 164.5t196 63.5q105 0 171.5 -74.5t66.5 -198.5z"/>
<glyph glyph-name="R" horiz-adv-x="633" unicode="R" d="M457 539q0 56 -25 85t-71 29h-15l-75 -295h9q84 0 130.5 53t46.5 128zM627 161l-5 -27q-13 -72 -46 -109t-106 -37q-103 0 -103 120q0 14 2.5 52t2.5 65q0 102 -83 102h-26l-56 -220q-7 -26 -7 -38q0 -19 17 -30q19 -12 64 -16l-6 -23h-329l6 23q50 6 65 12q29 12 39 49 l124 489q8 29 8 41q0 20 -17 28q-22 13 -63 18l6 23h294q101 0 153 -35t52 -100q0 -76 -55 -126t-152 -73v-6q40 -6 75 -34t35 -80q0 -33 -1 -79.5t-1 -54.5q0 -41 28 -41q17 0 32.5 22.5t21.5 60.5l5 29z"/>
<glyph glyph-name="S" horiz-adv-x="511" unicode="S" d="M557 690l-58 -237h-23q-4 60 -18 105t-46 76.5t-79 31.5q-48 0 -82.5 -38t-34.5 -88q0 -72 77 -114q16 -9 48 -28t45 -26q98 -57 98 -153q0 -101 -79 -167.5t-205 -66.5q-95 0 -169 55l-37 -46h-30l62 252h24q5 -56 22 -105.5t54 -86.5t87 -37q58 0 94.5 40.5t36.5 95.5 q0 40 -18.5 67t-60.5 49q-52 27 -92 53q-90 55 -90 159q0 89 74 153t188 64q90 0 151 -46l30 38h31z"/>
<glyph glyph-name="T" horiz-adv-x="536" unicode="T" d="M644 683l-48 -186h-23q-1 52 -15 98.5t-42 51.5t-61 5h-16l-138 -542q-7 -23 -7 -38q0 -21 16 -31q6 -4 32 -10t39 -8l-6 -23h-343l6 23q47 3 73 13q29 12 39 50l143 566h-16q-27 0 -59 -5q-26 -4 -72 -57t-68 -93h-24l48 186h542z"/>
<glyph glyph-name="U" horiz-adv-x="656" unicode="U" d="M773 683l-6 -23q-56 -8 -81 -25q-33 -23 -62 -137l-71 -277q-30 -118 -100 -177.5t-167 -59.5q-100 0 -157.5 47.5t-57.5 125.5q0 36 8 66l90 352q7 25 7 38q0 19 -16 31q-13 10 -62 16l6 23h322l-6 -23q-3 -1 -15 -3t-24.5 -4.5t-19.5 -4.5q-28 -10 -39 -49l-96 -376 q-10 -42 -10 -74q0 -55 30 -83.5t85 -28.5q67 0 114.5 49t72.5 143l68 263q16 58 16 97q0 24 -11 39q-8 11 -35 21t-43 11l6 23h254z"/>
<glyph glyph-name="V" horiz-adv-x="577" unicode="V" d="M721 683l-6 -23q-31 -2 -59 -20q-34 -20 -75 -86q-12 -19 -84 -138.5t-152.5 -254t-101.5 -169.5h-67q-3 45 -10.5 188t-13.5 262t-8 137q-3 25 -7.5 38t-17.5 23q-22 19 -56 20l6 23h321l-6 -23q-78 -10 -89 -35q-4 -9 -4 -27q0 -10 4 -94t8.5 -189.5t6.5 -145.5 q28 43 130 216q19 33 45.5 78.5t30.5 52.5q46 78 46 104q0 14 -26 25t-60 15l6 23h239z"/>
<glyph glyph-name="W" horiz-adv-x="889" unicode="W" d="M1025 683l-6 -23q-28 -3 -60 -21q-33 -18 -79 -99q-229 -407 -314 -548h-64q-2 46 -7.5 238.5t-6.5 220.5l-260 -459h-64q-2 55 -9.5 314.5t-8.5 281.5q-2 36 -20 53q-23 19 -53 19l6 23h297l-6 -23q-69 -7 -77 -36q-2 -7 -2 -28q0 -78 11 -408l182 322q0 23 -1 36 q-4 76 -25 94q-20 18 -52 20l6 23h309l-6 -23q-81 -8 -89 -36q-2 -7 -2 -28q0 -19 6.5 -179.5t10.5 -226.5q124 217 180 321q43 81 43 104q0 17 -25 29t-57 16l6 23h237z"/>
<glyph glyph-name="X" horiz-adv-x="638" unicode="X" d="M749 683l-6 -23q-27 -2 -63 -17q-13 -5 -25 -12.5t-28.5 -23t-20.5 -19.5t-24 -25q-37 -38 -99.5 -107t-75.5 -82l79 -259q18 -60 50 -77q17 -10 61 -15l-6 -23h-354l7 23q99 8 99 41q0 22 -20 92l-37 128q-57 -60 -117 -128q-71 -81 -71 -101q0 -23 72 -32l-6 -23h-246 l6 23q26 2 63 17q17 7 37.5 23t29 24.5t31.5 32.5q32 33 101.5 107t88.5 94l-76 247q-19 59 -50 76q-24 12 -61 16l6 23h354l-7 -23q-35 -2 -58.5 -9t-32 -14t-8.5 -15q0 -24 20 -95l34 -116q20 22 54.5 62t47.5 54q72 83 72 101q0 23 -74 32l6 23h247z"/>
<glyph glyph-name="Y" horiz-adv-x="590" unicode="Y" d="M731 683l-6 -23q-31 -4 -54 -19q-40 -23 -78 -70q-82 -102 -174 -225q-32 -42 -43.5 -67.5t-24.5 -75.5l-24 -94q-7 -28 -7 -37q0 -23 16 -32q6 -4 31.5 -10t37.5 -7l-6 -23h-343l6 23q50 3 73 12q31 12 41 50l34 136q8 32 8 56q0 21 -7 52q-25 121 -56 246 q-12 47 -38 68q-20 15 -54 17l6 23h336l-6 -23q-95 -6 -95 -33t14 -93q27 -140 45 -208q29 35 140 190q70 98 70 110t-23 21.5t-53 12.5l6 23h228z"/>
<glyph glyph-name="Z" horiz-adv-x="532" unicode="Z" d="M619 683l-7 -23l-497 -629h109q112 0 144 30q59 56 131 162h25l-74 -223h-515l6 23l495 629h-97q-62 0 -93 -13q-52 -22 -149 -157h-25l67 201h480z"/>
<glyph glyph-name="bracketleft" horiz-adv-x="379" unicode="[" d="M455 725l-8 -35h-153l-200 -791h153l-9 -35h-271l217 861h271z"/>
<glyph glyph-name="backslash" horiz-adv-x="331" unicode="\" d="M309 -203l-47 -8l-173 953l48 8z"/>
<glyph glyph-name="bracketright" horiz-adv-x="379" unicode="]" d="M420 725l-217 -861h-271l9 35h153l200 791h-153l8 35h271z"/>
<glyph glyph-name="asciicircum" d="M458 405h-62l-121 230l-121 -230h-62l158 296h50z" unicode="^"/>
<glyph glyph-name="underscore" horiz-adv-x="522" unicode="_" d="M438 -107l-14 -48h-530l14 48h530z"/>
<glyph glyph-name="grave" horiz-adv-x="435" unicode="`" d="M366 540l-15 -16q-48 38 -128 94q-30 20 -42 35t-12 40q0 21 14 37t36 16q21 0 35 -14.5t30 -45.5q19 -38 82 -146z"/>
<glyph glyph-name="a" horiz-adv-x="491" unicode="a" d="M322 372q-10 61 -48 61q-34 0 -67 -61.5t-52 -143.5t-19 -148q0 -20 7.5 -30.5t16.5 -10.5q39 0 90 89zM487 145q-27 -76 -59.5 -116t-78.5 -40q-44 0 -73 22t-30 68h-2q-28 -44 -56.5 -67t-71.5 -23q-46 0 -76.5 37t-30.5 123q0 128 78 225t171 97q27 0 48.5 -16.5 t25.5 -45.5h1l17 51h127l-101 -329q-24 -77 -24 -93q0 -14 13 -14q51 0 98 131z"/>
<glyph glyph-name="b" horiz-adv-x="445" unicode="b" d="M309 384q0 19 -8 28t-18 9q-24 0 -43.5 -22t-48.5 -68l-73 -255q1 -30 15 -46.5t35 -16.5q35 0 69 63.5t53 149.5t19 158zM436 311q0 -128 -77.5 -225.5t-172.5 -97.5q-77 0 -123 39.5t-46 99.5q0 35 17 95l111 388q12 41 12 66q0 24 -34 29q-27 5 -57 6v23l245 12 l-102 -344l3 -1q49 70 115 70q46 0 77.5 -37.5t31.5 -122.5z"/>
<glyph glyph-name="c" horiz-adv-x="360" unicode="c" d="M371 377q0 -39 -16.5 -64t-46.5 -25q-63 0 -63 62q0 22 19.5 42t49.5 27q-10 29 -46 29q-35 0 -66.5 -63.5t-48.5 -144t-17 -142.5q0 -71 42 -71t81 37t69 99l22 -12q-76 -163 -189 -163q-66 0 -109 42t-43 131q0 45 18 97.5t49.5 100.5t82 80t109.5 32q42 0 72.5 -25.5 t30.5 -68.5z"/>
<glyph glyph-name="d" horiz-adv-x="491" unicode="d" d="M321 371q-6 32 -16 47t-30 15q-35 0 -68.5 -61.5t-52 -143t-18.5 -147.5q0 -19 8 -30.5t17 -11.5q23 0 44.5 23t46.5 66zM552 746l-174 -615q-22 -78 -22 -93q0 -14 12 -14q27 0 49.5 32t46.5 99l24 -10q-27 -77 -58.5 -116.5t-77.5 -39.5q-43 0 -73 21.5t-31 68.5h-2 q-28 -44 -57 -67t-72 -23q-45 0 -76.5 37.5t-31.5 122.5q0 128 78.5 225t171.5 97q26 0 47 -17t25 -46h1l54 202q12 44 12 66q0 23 -33 28q-31 6 -68 7v23z"/>
<glyph glyph-name="e" horiz-adv-x="366" unicode="e" d="M270 394q0 52 -17 52q-26 0 -56.5 -63.5t-47.5 -151.5q61 17 91 62.5t30 100.5zM377 386q0 -139 -231 -178q-9 -53 -9 -108q0 -73 41 -73q91 0 155 134l22 -12q-77 -161 -192 -161q-68 0 -111 43.5t-43 125.5q0 69 32 140t96 122.5t143 51.5q43 0 70 -23.5t27 -61.5z"/>
<glyph glyph-name="f" horiz-adv-x="265" unicode="f" d="M482 649q0 -29 -18.5 -53t-50.5 -24q-66 0 -66 58q0 18 16.5 45t16.5 30q-3 13 -25 13q-31 0 -55 -47.5t-52 -159.5l-14 -56h97l-12 -38h-93q-8 -35 -27.5 -121t-34.5 -148.5t-29 -110.5q-39 -134 -104 -199q-64 -64 -149 -64q-48 0 -74 26t-26 67q0 28 19.5 51.5 t50.5 23.5q27 0 45 -18.5t18 -46.5q0 -14 -6 -25.5t-16 -23t-13 -16.5q-4 -14 6 -14q44 0 64.5 40.5t51.5 157.5q3 9 4 14q36 135 94 407h-75l11 38h75l8 31q34 132 108 200q63 59 144 59q54 0 82.5 -27.5t28.5 -68.5z"/>
<glyph glyph-name="g" horiz-adv-x="425" unicode="g" d="M257 -73q0 47 -25 53q-48 13 -133 15q-20 -5 -34.5 -35.5t-14.5 -75.5q0 -37 22.5 -60.5t57.5 -23.5q59 0 93 38.5t34 88.5zM259 378q0 71 -35 71q-29 0 -48.5 -62t-19.5 -111q0 -82 32 -82q29 0 50 65.5t21 118.5zM482 450q0 -25 -15 -40.5t-38 -15.5q-41 0 -60 68 q-9 -6 -24 -23v-5q35 -35 35 -91q0 -75 -53.5 -123t-136.5 -48h-69q-32 -16 -32 -31q0 -16 16.5 -23t71.5 -14l40.5 -4.5t41.5 -5.5q52 -8 83 -45.5t31 -93.5q0 -91 -73 -136t-190 -45q-80 0 -130.5 29t-50.5 77q0 49 38.5 82t111.5 43v5q-33 8 -55 29t-22 52q0 21 9.5 37.5 t28 27.5t29 15.5t28.5 10.5v4q-66 35 -66 108q0 77 53 127t146 50q70 0 104 -14q49 60 91 60q27 0 42 -20t15 -47z"/>
<glyph glyph-name="h" horiz-adv-x="479" unicode="h" d="M479 144q-29 -79 -61 -117t-82 -38q-41 0 -71.5 26t-30.5 66q0 28 15 73l53 160q23 69 23 84q0 10 -6.5 17.5t-15.5 7.5q-21 0 -51 -33t-62 -89l-85 -301h-125l173 610q12 45 12 65q0 25 -32 30q-28 5 -57 6v23l243 12l-110 -371l2 -1q62 97 125 97q45 0 75 -32t30 -82 q0 -16 -20 -76l-51 -151q-25 -74 -25 -92q0 -14 14 -14q50 0 96 130z"/>
<glyph glyph-name="i" horiz-adv-x="282" unicode="i" d="M281 144q-28 -77 -60 -116t-78 -39q-44 0 -75.5 23.5t-31.5 67.5q0 35 14 75l62 173q26 74 26 96q0 13 -11 13q-49 0 -94 -132l-24 10q27 77 57 116.5t76 39.5q47 0 76.5 -26.5t29.5 -71.5q0 -27 -23 -93l-54 -150q-26 -74 -26 -91q0 -15 15 -15q52 0 97 130zM309 650 q0 -33 -22 -55.5t-53 -22.5t-50 20.5t-19 53.5t22 55.5t53 22.5t50 -20.5t19 -53.5z"/>
<glyph glyph-name="j" horiz-adv-x="265" unicode="j" d="M252 377q0 -25 -9 -65q-28 -123 -71 -278q-36 -135 -108 -201q-63 -59 -149 -59q-41 0 -67.5 24.5t-26.5 66.5q0 28 18 52t49 24q29 0 47.5 -17t18.5 -49q0 -14 -6.5 -25.5t-16.5 -21.5t-13 -16q0 -14 9 -14q40 0 60 42t53 164q1 3 1 4q25 90 87 351q11 43 11 66 q0 12 -9 12q-48 0 -94 -132l-24 10q26 74 56 115t76 41q47 0 77.5 -25t30.5 -69zM302 650q0 -33 -22 -55.5t-53 -22.5t-50 20.5t-19 53.5t22 55.5t53 22.5t50 -20.5t19 -53.5z"/>
<glyph glyph-name="k" horiz-adv-x="450" unicode="k" d="M469 396q0 -34 -21 -59.5t-53 -25.5q-21 0 -36.5 13.5t-15.5 34.5q0 30 14 42.5t29.5 17.5t18.5 15q-5 16 -24 16q-35 0 -69 -84q-3 -7 -5 -11q-29 -68 -73 -88q107 -23 107 -94q0 -24 -10.5 -73.5t-10.5 -62.5q0 -8 1.5 -10.5t9.5 -2.5q52 0 97 130l24 -10 q-30 -80 -60 -117.5t-81 -37.5q-48 0 -77.5 25t-29.5 66q0 20 13 74t13 67q0 31 -28 31q-11 0 -27 -2l-70 -250h-125l173 610q12 44 12 66t-32 29q-20 5 -57 6v23l243 12l-137 -469q5 -1 19 -1q8 0 15 2.5t13.5 9t10.5 11t9 16t7.5 17t8 20t7.5 19.5q17 46 43.5 73t73.5 27 q40 0 60 -22t20 -53z"/>
<glyph glyph-name="l" horiz-adv-x="255" unicode="l" d="M317 746l-177 -618q-22 -76 -22 -91q0 -13 15 -13q49 0 96 131l24 -10q-31 -80 -60.5 -118t-76.5 -38q-43 0 -76.5 23.5t-33.5 67.5q0 22 15 74l130 456q12 43 12 66t-35 29q-33 5 -57 6v23z"/>
<glyph glyph-name="m" horiz-adv-x="743" unicode="m" d="M743 144q-29 -79 -61 -117t-82 -38q-41 0 -71.5 26t-30.5 66q0 28 15 73l53 160q23 69 23 84q0 10 -6.5 17.5t-15.5 7.5q-39 0 -98 -107l-94 -316h-127l98 328q16 50 16 71q0 24 -21 24q-43 0 -105 -113l-93 -310h-127l100 328q25 82 25 96q0 13 -13 13q-48 0 -94 -132 l-24 10q27 78 58 117t78 39q40 0 70.5 -23.5t30.5 -73.5h3q31 46 59 71.5t63 25.5q47 0 76.5 -31.5t29.5 -65.5h2q33 52 61 74.5t59 22.5q45 0 75 -32t30 -82q0 -16 -20 -76l-51 -151q-25 -74 -25 -92q0 -14 14 -14q50 0 96 130z"/>
<glyph glyph-name="n" horiz-adv-x="517" unicode="n" d="M517 144q-29 -79 -61 -117t-82 -38q-41 0 -71.5 26t-30.5 66q0 28 15 73l53 160q23 69 23 84q0 10 -6.5 17.5t-15.5 7.5q-43 0 -105 -112l-93 -311h-127l100 328q25 82 25 96q0 13 -13 13q-48 0 -94 -132l-24 10q27 78 58 117t78 39q40 0 70.5 -23.5t30.5 -73.5h2 q62 97 125 97q45 0 75 -32t30 -82q0 -16 -20 -76l-51 -151q-25 -74 -25 -92q0 -14 14 -14q50 0 96 130z"/>
<glyph glyph-name="o" horiz-adv-x="431" unicode="o" d="M299 370q0 77 -30 77q-53 0 -95 -117t-42 -241q0 -76 31 -76q35 0 67 56.5t50.5 139t18.5 161.5zM422 286q0 -116 -73.5 -207t-188.5 -91q-63 0 -107 48.5t-44 137.5q0 72 29.5 139t91.5 113t142 46q64 0 107 -49.5t43 -136.5z"/>
<glyph glyph-name="p" horiz-adv-x="493" unicode="p" d="M357 384q0 37 -25 37q-16 0 -32.5 -14t-27.5 -30t-30 -46l-70 -242q5 -32 16 -47t31 -15q35 0 68 61.5t51.5 144t18.5 151.5zM484 311q0 -128 -78 -225t-171 -97q-27 0 -48 17t-25 46h-1l-42 -156q-14 -52 -14 -65q0 -23 37 -29q30 -4 57 -6l-5 -22h-304l5 22q49 0 66 22 q16 21 33 82l121 428q24 83 24 97q0 12 -11 12q-48 0 -94 -132l-24 10q27 76 57.5 116t76.5 40q96 0 102 -91h2q28 44 57 67.5t71 23.5q47 0 77.5 -37t30.5 -123z"/>
<glyph glyph-name="q" horiz-adv-x="454" unicode="q" d="M322 371q-5 32 -16 47t-31 15q-35 0 -68.5 -62t-52 -143t-18.5 -147q0 -19 8 -30.5t17 -11.5q39 0 93 89zM473 460l-159 -562q-14 -50 -14 -65q0 -24 32 -31q22 -5 46 -6l-5 -22h-300l6 22q59 0 78 24q14 19 33 82l43 152h-2q-47 -65 -114 -65q-45 0 -76.5 37.5 t-31.5 122.5q0 128 78.5 225t171.5 97q27 0 48.5 -17t25.5 -46h2l34 52h104z"/>
<glyph glyph-name="r" horiz-adv-x="416" unicode="r" d="M436 387q0 -36 -18.5 -63t-51.5 -27q-31 0 -47.5 16t-16.5 44q0 25 34 70v4q-42 -4 -100 -119l-87 -312h-128l95 328q24 80 24 95q0 14 -11 14q-49 0 -95 -132l-24 10q27 77 57.5 116.5t79.5 39.5q38 0 67.5 -22.5t30.5 -76.5h2q25 47 51.5 73t61.5 26q36 0 56 -24.5 t20 -59.5z"/>
<glyph glyph-name="s" horiz-adv-x="364" unicode="s" d="M366 371q0 -37 -16 -60.5t-46 -23.5q-58 0 -58 56q0 17 11.5 29.5t23.5 18t27.5 10.5t16.5 5q-3 12 -25.5 25t-53.5 13q-26 0 -45.5 -18.5t-19.5 -53.5t40 -75q7 -7 28 -26.5t30 -29.5q51 -53 51 -112q0 -60 -51 -101.5t-141 -41.5q-66 0 -105 32.5t-39 81.5q0 39 21 66 t49 27q31 0 47.5 -17t16.5 -43t-13.5 -43.5t-42.5 -17.5q-6 0 -18 2.5t-15 2.5h-2q-6 0 -6 -6q0 -21 30 -39.5t67 -18.5q86 0 86 77q0 34 -44 80q-8 9 -32 31.5t-36 36.5q-41 47 -41 95q0 58 49 98t129 40q54 0 90.5 -29t36.5 -71z"/>
<glyph glyph-name="t" horiz-adv-x="283" unicode="t" d="M330 455l-12 -38h-91q-67 -253 -84 -318q-11 -42 -11 -65q0 -14 15 -14q52 0 99 135l23 -8q-30 -82 -60 -120t-78 -38q-43 0 -79.5 23t-36.5 67q0 11 9 49q17 67 47 176t31 113h-81l12 38h82l43 158h125l-45 -158h92z"/>
<glyph glyph-name="u" horiz-adv-x="513" unicode="u" d="M507 145q-27 -77 -59.5 -116.5t-79.5 -39.5q-40 0 -71 23.5t-31 73.5h-2q-34 -53 -62 -75t-60 -22q-45 0 -74.5 32t-29.5 83q0 18 19 75l51 151q25 74 25 92q0 14 -12 14q-47 0 -93 -130l-24 10q29 80 59.5 117.5t80.5 37.5q40 0 70 -26t30 -66q0 -28 -15 -73l-53 -160 q-23 -69 -23 -84q0 -10 6.5 -17.5t15.5 -7.5q40 0 102 112l93 311h128l-101 -328q-24 -78 -24 -96q0 -13 13 -13q51 0 97 132z"/>
<glyph glyph-name="v" horiz-adv-x="438" unicode="v" d="M438 350q0 -149 -82 -255.5t-183 -106.5q-59 0 -93.5 36.5t-34.5 101.5q0 69 41.5 132.5t124.5 144.5l-5 6q-68 -55 -102 -55q-32 0 -47 9l-27 -84l-23 8l56 182h17q11 -24 31 -36.5t41 -12.5q30 0 54 12t54 42l19 -18q-42 -46 -73 -142.5t-31 -185.5q0 -40 12.5 -64.5 t30.5 -24.5q61 0 119.5 76t58.5 154q0 24 -13.5 41.5t-30 26.5t-30 25t-13.5 37q0 30 16.5 49t46.5 19q35 0 50.5 -35t15.5 -82z"/>
<glyph glyph-name="w" horiz-adv-x="634" unicode="w" d="M434 371q0 38 -19 38q-25 0 -36 -37q-19 -68 -19 -180v-21q74 129 74 200zM634 353q0 -142 -79 -254t-174 -112q-65 0 -103 57q-55 -56 -105 -56q-59 0 -93 35.5t-34 103.5t43.5 133t123.5 144l-5 5q-65 -55 -107 -55q-28 0 -44 9l-26 -81l-23 8l55 179h17q22 -49 73 -49 q31 0 53.5 12t54.5 42l17 -18q-46 -61 -74.5 -158t-28.5 -196q0 -30 9 -49.5t21 -19.5q29 0 60 33q-16 35 -16 72q0 58 31.5 137.5t72 135.5t66.5 56q18 0 32.5 -24.5t14.5 -58.5q0 -48 -30 -120.5t-74 -135.5q5 -50 18.5 -70t38.5 -20q58 0 115.5 77t57.5 155 q0 25 -13.5 42.5t-29.5 25.5t-29.5 23.5t-13.5 38.5q0 31 16 49.5t44 18.5q68 0 68 -115z"/>
<glyph glyph-name="x" horiz-adv-x="459" unicode="x" d="M482 395q0 -29 -13 -55t-23 -37.5t-34 -34.5l-15 13q9 18 18 58.5t9 69.5q0 35 -15 35q-21 0 -58.5 -73t-59.5 -159q-19 -72 -19 -133q0 -53 37 -53q27 0 49 31t46 99l23 -9q-28 -82 -57 -120t-79 -38q-55 0 -93 29.5t-39 103.5h-3q-45 -133 -105 -133q-74 0 -74 71 t80 146l16 -13q-28 -54 -28 -112q0 -60 16 -60q15 0 31 20t31.5 59t24.5 66t22 70q35 112 35 167q0 34 -21 34q-63 0 -109 -132l-24 10q29 76 63.5 116t84.5 40q104 0 109 -122h3q15 48 44.5 85t60.5 37q27 0 46.5 -18t19.5 -58z"/>
<glyph glyph-name="y" horiz-adv-x="480" unicode="y" d="M499 460l-100 -354q-29 -101 -66 -169t-82.5 -102.5t-89.5 -47.5t-99 -13q-50 0 -82 27t-32 70q0 28 18.5 52t50.5 24q29 0 48 -17t19 -50q0 -18 -9.5 -35t-22.5 -25q-10 -5 -10 -9q0 -12 22 -12q70 0 114 65.5t91 219.5h-2q-60 -94 -125 -94q-45 0 -74.5 32t-29.5 83 q0 17 19 74l51 151q25 74 25 92q0 14 -12 14q-47 0 -93 -130l-24 10q29 80 59.5 117.5t80.5 37.5q40 0 70 -26t30 -66q0 -28 -15 -73l-53 -160q-23 -69 -23 -83q0 -11 7 -18t17 -7q43 0 104 111l91 311h127z"/>
<glyph glyph-name="z" horiz-adv-x="379" unicode="z" d="M414 426q0 -38 -38 -71q-45 -40 -253 -194l1 -6q26 -1 75.5 -18t73.5 -17q16 0 26 8.5t10 19.5q0 20 -36 29l6 25q40 -9 60.5 -35.5t20.5 -57.5q0 -49 -26 -84.5t-71 -35.5q-29 0 -54 22.5t-39.5 50t-30 51t-26.5 24.5q-22 -7 -35 -37q-12 -27 -12 -57q0 -55 -56 -55 q-14 0 -26 12.5t-12 35.5q0 28 40 64q52 47 255 198v5q-22 0 -79 16.5t-72 16.5q-19 0 -19 -25q0 -20 52 -36l-11 -23q-96 34 -96 95q0 52 26.5 87.5t61.5 35.5q30 0 57 -23t42.5 -51t30.5 -51t24 -23q20 0 29.5 25t9.5 58q0 66 43 66q48 0 48 -45z"/>
<glyph glyph-name="braceleft" horiz-adv-x="357" unicode="{" d="M448 744l-6 -24q-48 -2 -67 -20.5t-35 -86.5q-4 -18 -9.5 -55.5t-10.5 -58.5q-13 -51 -34.5 -85t-54.5 -54.5t-62.5 -30.5t-77.5 -20l-7 -25q35 -8 56.5 -16t43.5 -21.5t32.5 -35t10.5 -52.5q0 -46 -27 -122q-31 -85 -31 -129q0 -28 14 -39.5t43 -13.5l-6 -24 q-162 0 -162 112q0 55 33 134q31 75 31 120q0 40 -23.5 54.5t-76.5 19.5l14 53q47 4 73.5 13.5t48 37t34.5 79.5q6 23 10.5 68t7.5 61q10 51 31 84t54 49.5t68 22t85 5.5z"/>
<glyph glyph-name="bar" horiz-adv-x="249" unicode="|" d="M169 -207h-47v953h47v-953z"/>
<glyph glyph-name="braceright" horiz-adv-x="357" unicode="}" d="M-89 -170l6 24q48 2 67 20.5t35 86.5q4 18 9.5 55.5t10.5 58.5q13 51 34.5 85t54.5 54.5t62.5 30.5t77.5 20l7 25q-35 8 -56.5 16t-43.5 21.5t-32.5 35t-10.5 52.5q0 46 27 122q31 85 31 129q0 28 -14 39.5t-43 13.5l6 24q162 0 162 -112q0 -55 -33 -134 q-31 -75 -31 -120q0 -40 23.5 -54.5t76.5 -19.5l-14 -53q-47 -4 -73.5 -13.5t-48 -37t-34.5 -79.5q-6 -23 -10.5 -68t-7.5 -61q-10 -51 -31 -84t-54 -49.5t-68 -22t-85 -5.5z"/>
<glyph glyph-name="asciitilde" d="M429 345q-13 -53 -45 -97.5t-75 -44.5q-38 0 -84.5 22t-65.5 22q-33 0 -52 -13.5t-34 -46.5l-17 7q13 54 44.5 98t75.5 44q35 0 83 -22t67 -22q33 0 52 13.5t34 46.5z" unicode="~"/>
<glyph glyph-name="exclamdown" horiz-adv-x="287" unicode="¡" d="M212 471q-31 -351 -47 -411q-8 -33 -30.5 -53.5t-49.5 -20.5q-32 0 -50 22.5t-18 58.5q0 15 5 32q19 72 167 378zM311 621q0 -32 -22 -54t-54 -22t-54 22t-22 54t22 53t54 21t54 -21t22 -53z"/>
<glyph glyph-name="cent" horiz-adv-x="428" unicode="¢" d="M330 504q-5 18 -26 18q-38 0 -69.5 -54.5t-47 -121t-15.5 -117.5q0 -41 12 -72zM436 457q0 -40 -24.5 -67.5t-64.5 -27.5q-24 0 -42 18l-100 -243q17 -19 45 -19q42 0 74 23.5t61 72.5l20 -13q-32 -61 -87.5 -101.5t-118.5 -40.5q-20 0 -27 2l-68 -163l-25 5l67 162 q-53 15 -81 58.5t-28 104.5q0 77 31 148.5t94.5 121t145.5 49.5q21 0 39 -4l58 139l26 -5l-58 -139q29 -10 46 -31.5t17 -49.5z"/>
<glyph glyph-name="sterling" horiz-adv-x="598" unicode="£" d="M140 75q-19 13 -27.5 18.5t-27.5 12t-39 6.5q-28 0 -42.5 -18.5t-14.5 -38.5q0 -17 12 -29.5t35 -12.5q58 0 104 62zM616 567q0 -39 -22.5 -70t-61.5 -31q-38 0 -54 23t-16 54q0 19 6 34.5t19 34.5t15 23q-8 35 -48 35q-91 0 -119 -161q-4 -23 -7.5 -79t-3.5 -58h151 l-9 -30h-145q-6 -28 -15 -57h147l-8 -30h-150q-32 -73 -68 -117q98 -31 168 -31q115 0 159 156l27 -5q-13 -68 -44.5 -129t-86 -105t-118.5 -44q-10 0 -19.5 1.5t-18 3t-18.5 5.5t-16 6.5t-16.5 8.5t-15 8.5t-15.5 10t-14 10t-14.5 10.5t-13.5 10q-65 -70 -131 -70 q-38 0 -58.5 20t-20.5 51q0 44 34 78.5t92 34.5q26 0 90 -17q2 9 2 32q0 15 -2 41.5t-2 30.5h-119l8 30h110l-2 57h-95l9 30h87q0 136 81 232.5t195 96.5q82 0 124.5 -39.5t42.5 -94.5z"/>
<glyph glyph-name="currency" horiz-adv-x="570" unicode="¤" d="M610 553q0 -44 -23.5 -74.5t-63.5 -30.5q-69 0 -69 76q0 23 8 40t20 32t16 25q-7 47 -56 47q-58 0 -104 -73t-78 -199h205l-7 -30h-206q-10 -43 -11 -57h172l-8 -30h-169q-8 -55 -8 -105q0 -134 87 -134q61 0 103 39.5t84 115.5l28 -12q-94 -198 -255 -198 q-91 0 -142 59.5t-51 167.5q0 40 4 67h-68l8 30h66q1 14 12 57h-64l7 30h65q46 140 134 222t199 82q75 0 120 -43t45 -104z"/>
<glyph glyph-name="yen" horiz-adv-x="593" unicode="¥" d="M705 683l-7 -23q-26 -4 -51 -19q-36 -21 -73 -70q-80 -107 -145 -197h136l-7 -30h-148q-26 -37 -36 -57h169l-6 -30h-170l-38 -148q-7 -23 -7 -40q0 -20 15 -30q6 -4 32.5 -9.5t38.5 -6.5l-6 -23h-331l6 23q50 3 68 11q29 11 39 51l44 172h-170l6 30h168q0 18 -1 27 q0 6 -4 30h-148l7 30h135l-39 201q-9 46 -38 69q-17 14 -57 16l7 23h318l-7 -23q-83 -6 -83 -29q0 -22 10 -76l42 -209l130 194q50 76 50 86q0 29 -73 34l7 23h217z"/>
<glyph glyph-name="brokenbar" horiz-adv-x="250" unicode="¦" d="M169 -207h-47v392h47v-392zM169 364h-47v382h47v-382z"/>
<glyph glyph-name="section" horiz-adv-x="520" unicode="§" d="M369 179q0 31 -23 64q-24 34 -55.5 72.5t-58.5 77.5q-43 -17 -59.5 -40t-16.5 -58q0 -31 23 -64q24 -34 55.5 -72.5t58.5 -77.5q45 20 60.5 41t15.5 57zM526 593q0 -33 -19.5 -56.5t-50.5 -23.5q-22 0 -36.5 17t-14.5 39q0 17 10.5 38t10.5 33q0 14 -16 22.5t-37 8.5 q-36 0 -59 -28t-23 -64q0 -42 30 -86q16 -24 50.5 -63.5t55.5 -69.5q43 -60 43 -117q0 -63 -44.5 -112.5t-120.5 -69.5q32 -49 32 -97q0 -80 -55.5 -135.5t-143.5 -55.5q-65 0 -101.5 31t-36.5 79q0 33 19.5 56.5t50.5 23.5q22 0 36.5 -17t14.5 -39q0 -17 -10.5 -38 t-10.5 -33q0 -14 16 -23.5t37 -9.5q36 0 59 28t23 64q0 40 -31 86q-16 24 -50.5 63.5t-55.5 69.5q-43 60 -43 117q0 63 45 113t120 69q-31 48 -31 97q0 80 56 135.5t144 55.5q65 0 101 -30t36 -78z"/>
<glyph glyph-name="dieresis" horiz-adv-x="435" unicode="¨" d="M282 635q0 -30 -23 -51.5t-50 -21.5t-43.5 19.5t-16.5 49.5t22.5 51.5t51.5 21.5q26 0 42.5 -19.5t16.5 -49.5zM468 635q0 -30 -23 -51.5t-50 -21.5t-43.5 19.5t-16.5 49.5t22.5 51.5t51.5 21.5q26 0 42.5 -19.5t16.5 -49.5z"/>
<glyph glyph-name="copyright" horiz-adv-x="950" unicode="©" d="M689 183q-29 -66 -73.5 -103t-117.5 -37q-104 0 -170.5 64t-66.5 170q0 103 74 173t182 70q32 0 63 -10.5t42 -19.5l21 37h27l4 -181h-23q-49 144 -143 144q-43 0 -77 -53.5t-34 -154.5q0 -87 39 -141t97 -54q82 0 134 106zM881 281q0 162 -113.5 277t-275.5 115 q-163 0 -277 -115t-114 -277q0 -164 114 -279.5t277 -115.5t276 115.5t113 279.5zM927 281q0 -117 -58 -216.5t-158.5 -157.5t-218.5 -58q-181 0 -309 126.5t-128 305.5q0 116 58 215t159 157t220 58q180 0 307.5 -126.5t127.5 -303.5z"/>
<glyph glyph-name="ordfeminine" horiz-adv-x="359" unicode="ª" d="M277 643q-6 36 -29 36q-30 0 -56.5 -74t-26.5 -138q0 -24 15 -24q23 0 54 53zM329 370l-7 -35h-259l8 35h258zM283 665l11 30h76l-61 -197q-14 -45 -14 -56q0 -8 8 -8q30 0 58 78l15 -6q-33 -93 -83 -93q-26 0 -43.5 13.5t-18.5 40.5h-1q-34 -54 -77 -54q-64 0 -64 96 q0 76 47 134.5t102 58.5q16 0 29.5 -10t15.5 -27z"/>
<glyph glyph-name="guillemotleft" d="M299 419l-168 -204l67 -187l-14 -11q-34 42 -81 92.5t-58 64.5q-14 17 -14 30q0 41 38 68q180 130 219 160zM471 419l-168 -204l67 -187l-14 -11q-34 42 -81 92.5t-58 64.5q-14 17 -14 30q0 41 38 68q180 130 219 160z" unicode="«"/>
<glyph glyph-name="logicalnot" d="M438 39h-62v207h-343v56h405v-263z" unicode="¬"/>
<glyph glyph-name="registered" horiz-adv-x="474" unicode="®" d="M344 579q0 24 -8.5 31.5t-27.5 7.5h-22v-82h14q44 0 44 43zM425 465q0 -22 -9.5 -32t-32.5 -10q-42 0 -48 51q-2 17 -3.5 24t-10.5 15.5t-25 8.5h-10v-65q0 -11 9 -15q6 -3 20 -3v-13h-104v13q14 0 20 3q9 4 9 15v143q0 12 -9 15q-12 4 -20 4v12h108q71 0 71 -46 q0 -42 -68 -54v-3q51 -7 56 -30q1 -4 4.5 -19.5t5.5 -23.5q4 -13 10 -13q17 0 17 23h10zM467 521q0 69 -45.5 116.5t-114.5 47.5t-114.5 -47.5t-45.5 -116.5t45.5 -116.5t114.5 -47.5t114.5 47.5t45.5 116.5zM489 521q0 -77 -52.5 -129.5t-129.5 -52.5t-129.5 52.5 t-52.5 129.5t52.5 129.5t129.5 52.5t129.5 -52.5t52.5 -129.5z"/>
<glyph glyph-name="macron" horiz-adv-x="435" unicode="¯" d="M445 672l-23 -85h-287l23 85h287z"/>
<glyph glyph-name="degree" horiz-adv-x="339" unicode="°" d="M311 646q0 74 -45 74q-41 0 -68.5 -56.5t-27.5 -116.5q0 -72 47 -72q37 0 65.5 55t28.5 116zM387 637q0 -75 -52 -131t-127 -56q-52 0 -82.5 28t-30.5 79q0 75 52 132t124 57q52 0 84 -27.5t32 -81.5z"/>
<glyph glyph-name="plusminus" horiz-adv-x="782" unicode="±" d="M99 -61q9 3 19 3q27 0 45 -18.5t18 -46.5q0 -14 -6 -25.5t-16 -23t-13 -16.5q-4 -14 6 -14q44 0 64.5 40.5t51.5 157.5q3 9 4 14q36 135 94 407h-140q-8 -35 -27.5 -121t-34.5 -148.5t-29 -110.5q-15 -54 -36 -98zM415 572h-8q-25 0 -42.5 15.5t-17.5 42.5q0 18 16.5 45 t16.5 30q-3 13 -25 13q-31 0 -55 -47.5t-52 -159.5l-14 -56h143l8 31q12 49 30 86zM713 718l130 28l-178 -621q-22 -76 -22 -87q0 -14 17 -14q49 0 95 131l24 -10q-28 -79 -59.5 -117.5t-77.5 -38.5q-42 0 -75.5 23.5t-33.5 65.5q0 23 14 72l127 442q-22 30 -22 77 q0 20 4 37q-1 5 -12.5 9t-19.5 4q-32 0 -57 -47.5t-53 -160.5l-14 -56h88l-12 -38h-84q-8 -35 -27.5 -121t-34.5 -148.5t-29 -110.5q-39 -134 -104 -199q-64 -64 -149 -64q-45 0 -71 23t-29 60q-5 -7 -17 -19q-62 -64 -149 -64q-48 0 -74 26t-26 67q0 28 19.5 51.5 t50.5 23.5q27 0 45 -18.5t18 -46.5q0 -14 -6 -25.5t-16 -23t-13 -16.5q-4 -14 6 -14q44 0 64.5 40.5t51.5 157.5q3 9 4 14q36 135 94 407h-75l11 38h75l8 31q34 132 108 200q63 59 144 59q45 0 73 -20t35 -52q2 2 7 6.5t7 6.5q63 59 144 59q39 0 76 -27z"/>
<glyph glyph-name="twosuperior" horiz-adv-x="617" unicode="²" d="M370 278q0 29 -19 48.5t-48 19.5q-28 0 -47.5 -19.5t-19.5 -48.5t19.5 -49.5t47.5 -20.5q29 0 48 20t19 50zM597 291q0 -31 -21.5 -52.5t-53.5 -21.5q-24 0 -56.5 23t-59.5 27l-9 -8q-6 -35 -39 -60l-1 -10q15 -20 53 -39q55 -26 55 -76q0 -30 -23 -53t-55 -23 q-31 0 -53 21.5t-22 53.5q0 14 9 43t9 51v11l-7 5q-7 -1 -20 -1q-30 0 -56 18l-13 -1q-15 -22 -21 -61q-14 -83 -78 -83q-31 0 -54 22.5t-23 54.5t24 53.5t59 21.5h12q37 0 62 13l3 14q-10 22 -10 43q0 13 3 25l-5 13q-9 3 -27 3q-15 0 -35 -3.5t-29 -3.5q-33 0 -55 22.5 t-22 53.5t22 54t54 23q45 0 67 -42q4 -7 9 -24t11.5 -31.5t17.5 -25.5l15 1q28 30 69 30l11 7q0 28 -17 61.5t-17 52.5q0 32 22 52.5t54 20.5t53 -22.5t21 -53.5q0 -22 -10 -37.5t-22.5 -23t-29 -22.5t-26.5 -33l4 -12q38 -20 48 -58l12 -6q23 8 54.5 39t63.5 31 q30 0 51.5 -22.5t21.5 -54.5z"/>
<glyph glyph-name="threesuperior" horiz-adv-x="617" unicode="³" d="M370 278q0 29 -19 48.5t-48 19.5q-28 0 -47.5 -19.5t-19.5 -48.5t19.5 -49.5t47.5 -20.5q29 0 48 20t19 50zM597 291q0 -31 -21.5 -52.5t-53.5 -21.5q-24 0 -56.5 23t-59.5 27l-9 -8q-6 -35 -39 -60l-1 -10q15 -20 53 -39q55 -26 55 -76q0 -30 -23 -53t-55 -23 q-31 0 -53 21.5t-22 53.5q0 14 9 43t9 51v11l-7 5q-7 -1 -20 -1q-30 0 -56 18l-13 -1q-15 -22 -21 -61q-14 -83 -78 -83q-31 0 -54 22.5t-23 54.5t24 53.5t59 21.5h12q37 0 62 13l3 14q-10 22 -10 43q0 13 3 25l-5 13q-9 3 -27 3q-15 0 -35 -3.5t-29 -3.5q-33 0 -55 22.5 t-22 53.5t22 54t54 23q45 0 67 -42q4 -7 9 -24t11.5 -31.5t17.5 -25.5l15 1q28 30 69 30l11 7q0 28 -17 61.5t-17 52.5q0 32 22 52.5t54 20.5t53 -22.5t21 -53.5q0 -22 -10 -37.5t-22.5 -23t-29 -22.5t-26.5 -33l4 -12q38 -20 48 -58l12 -6q23 8 54.5 39t63.5 31 q30 0 51.5 -22.5t21.5 -54.5z"/>
<glyph glyph-name="acute" horiz-adv-x="435" unicode="´" d="M424 698q0 -25 -16 -42.5t-49 -38.5q-71 -44 -143 -93l-12 16q69 92 104 146q20 31 36 45.5t37 14.5q43 0 43 -48z"/>
<glyph glyph-name="mu" horiz-adv-x="504" unicode="µ" d="M497 145q-27 -77 -59.5 -116.5t-79.5 -39.5q-39 0 -70 23t-32 71h-2q-56 -93 -119 -93q-34 0 -58 15t-32 40h-1l-9 -32q-10 -36 -12 -95q-3 -74 -5 -86q-6 -29 -22.5 -43.5t-36.5 -14.5q-17 0 -29 12t-12 35q0 15 13 45.5t30.5 66.5t23.5 52q13 34 56 181l86 294h127 l-99 -328q-15 -48 -15 -70q0 -10 6.5 -17.5t15.5 -7.5q49 0 104 109l93 314h127l-99 -328q-24 -82 -24 -96q0 -13 13 -13q51 0 97 132z"/>
<glyph glyph-name="paragraph" horiz-adv-x="530" unicode="¶" d="M610 683l-7 -25h-110l-197 -783h-29l197 783h-69l-197 -783h-29l118 467h-10q-174 0 -174 140q0 73 52.5 137t143.5 64h311z"/>
<glyph glyph-name="periodcentered" horiz-adv-x="268" unicode="·" d="M221 272q0 -33 -22.5 -56t-55.5 -23q-32 0 -55 23t-23 56q0 32 23 55t55 23q33 0 55.5 -23t22.5 -55z"/>
<glyph glyph-name="cedilla" horiz-adv-x="435" unicode="¸" d="M257 -119q0 -36 -16.5 -60t-48.5 -36t-68 -16.5t-87 -4.5l9 28q28 0 44 1t38 6t32.5 17.5t10.5 32.5q0 37 -58 37l38 110h26l-15 -39q95 -6 95 -76z"/>
<glyph glyph-name="onesuperior" horiz-adv-x="617" unicode="¹" d="M370 278q0 29 -19 48.5t-48 19.5q-28 0 -47.5 -19.5t-19.5 -48.5t19.5 -49.5t47.5 -20.5q29 0 48 20t19 50zM597 291q0 -31 -21.5 -52.5t-53.5 -21.5q-24 0 -56.5 23t-59.5 27l-9 -8q-6 -35 -39 -60l-1 -10q15 -20 53 -39q55 -26 55 -76q0 -30 -23 -53t-55 -23 q-31 0 -53 21.5t-22 53.5q0 14 9 43t9 51v11l-7 5q-7 -1 -20 -1q-30 0 -56 18l-13 -1q-15 -22 -21 -61q-14 -83 -78 -83q-31 0 -54 22.5t-23 54.5t24 53.5t59 21.5h12q37 0 62 13l3 14q-10 22 -10 43q0 13 3 25l-5 13q-9 3 -27 3q-15 0 -35 -3.5t-29 -3.5q-33 0 -55 22.5 t-22 53.5t22 54t54 23q45 0 67 -42q4 -7 9 -24t11.5 -31.5t17.5 -25.5l15 1q28 30 69 30l11 7q0 28 -17 61.5t-17 52.5q0 32 22 52.5t54 20.5t53 -22.5t21 -53.5q0 -22 -10 -37.5t-22.5 -23t-29 -22.5t-26.5 -33l4 -12q38 -20 48 -58l12 -6q23 8 54.5 39t63.5 31 q30 0 51.5 -22.5t21.5 -54.5z"/>
<glyph glyph-name="ordmasculine" horiz-adv-x="359" unicode="º" d="M284 641q0 46 -18 46q-32 0 -57 -70.5t-25 -144.5q0 -46 19 -46q31 0 56 70t25 145zM324 370l-7 -35h-239l8 35h238zM358 590q0 -69 -44 -124t-113 -55q-38 0 -64.5 29.5t-26.5 82.5q0 69 43.5 124t114.5 55q38 0 64 -30t26 -82z"/>
<glyph glyph-name="guillemotright" d="M265 242q0 -41 -38 -68q-180 -130 -219 -160l-11 13l168 204l-67 187l14 11q34 -42 81 -92.5t58 -64.5q14 -17 14 -30zM437 242q0 -41 -38 -68q-180 -130 -219 -160l-11 13l168 203l-67 188l14 11q34 -42 81 -92.5t58 -64.5q14 -17 14 -30z" unicode="»"/>
<glyph glyph-name="onequarter" horiz-adv-x="675" unicode="¼" d="M485 321l-150 -153h112zM642 225l-39 -156h-18q4 19 4 42q0 19 -22 19h-34l-14 -57q-4 -20 -4 -23q0 -14 9 -18q12 -8 39 -10l-5 -22h-213l5 22q30 2 47 7q18 5 23 28l18 73h-153l10 37l242 246h67l-59 -245h30q19 0 30 17q13 18 19 40h18zM641 680l-547 -705l-27 22 l545 705zM327 699q-20 -46 -36 -106l-55 -219q0 -1 -2 -8t-3 -12.5t-1 -8.5q0 -14 10 -20q20 -10 48 -10l-5 -22h-230l5 22q27 0 51 8q19 6 24 28l69 271h-11q-5 0 -9 0.5t-8.5 3t-7.5 3.5t-7.5 5t-7 5.5t-7 7t-6 7t-6.5 8t-6 7.5l12 16q32 -17 71 -17q47 0 94 31h24z"/>
<glyph glyph-name="onehalf" horiz-adv-x="716" unicode="½" d="M680 297q0 -62 -54.5 -112t-179.5 -102l-1 -2h145q14 0 30 13.5t23 23.5t22 33l15 -7l-70 -144h-269l21 55q57 35 83.5 54t61.5 51q73 67 73 160q0 59 -40 59q-34 0 -49 -29q1 -3 6.5 -13t8.5 -19t3 -20q0 -24 -14 -45.5t-47 -21.5q-23 0 -35 17t-12 40q0 41 44 80 t112 39q55 0 89 -30t34 -80zM641 680l-547 -705l-27 22l545 705zM327 699q-20 -46 -36 -106l-55 -219q0 -1 -2 -8t-3 -12.5t-1 -8.5q0 -14 10 -20q20 -10 48 -10l-5 -22h-230l5 22q27 0 51 8q19 6 24 28l69 271h-11q-5 0 -9 0.5t-8.5 3t-7.5 3.5t-7.5 5t-7 5.5t-7 7t-6 7 t-6.5 8t-6 7.5l12 16q32 -17 71 -17q47 0 94 31h24z"/>
<glyph glyph-name="threequarters" horiz-adv-x="721" unicode="¾" d="M531 321l-150 -153h112zM688 225l-39 -156h-18q4 19 4 42q0 19 -22 19h-34l-14 -57q-4 -20 -4 -23q0 -14 9 -18q12 -8 39 -10l-5 -22h-213l5 22q30 2 47 7q18 5 23 28l18 73h-153l10 37l242 246h67l-61 -245h32q19 0 30 17q13 18 19 40h18zM687 680l-547 -705l-27 22 l545 705zM393 621q0 -85 -132 -108l-1 -6q42 0 75 -19.5t33 -60.5q0 -68 -57.5 -111t-136.5 -43q-54 0 -87 24.5t-33 67.5q0 36 20.5 56.5t49.5 20.5q20 0 31 -12.5t11 -28.5q0 -24 -20 -42t-20 -29q0 -12 10.5 -21.5t31.5 -9.5q43 0 71 47t28 100q0 39 -30 39 q-19 0 -48 -28l-15 32q46 25 66 39t35.5 37.5t15.5 55.5q0 24 -11 39.5t-28 15.5q-27 0 -42 -27q0 -2 5.5 -17t5.5 -26q0 -27 -14 -44.5t-40 -17.5q-22 0 -34 15t-12 37q0 45 43.5 75t106.5 30q55 0 88.5 -22t33.5 -58z"/>
<glyph glyph-name="questiondown" horiz-adv-x="426" unicode="¿" d="M370 406q0 -93 -132 -161q-59 -30 -83 -57.5t-24 -77.5q0 -36 21 -61t61 -25q47 0 74.5 30t27.5 66q0 5 -0.5 11t-0.5 8h-5q0 -29 -16 -47t-43 -18q-28 0 -44 17.5t-16 45.5q0 32 21.5 50t55.5 18q31 0 54.5 -24t23.5 -63q0 -52 -41.5 -92t-111.5 -40q-84 0 -134 46.5 t-50 111.5q0 115 125 179q82 42 114 68.5t32 60.5q0 11 -7.5 17.5t-17.5 6.5q-52 0 -68 -76l-28 8q9 48 37 75t65 27q45 0 77.5 -30t32.5 -74zM404 621q0 -32 -22 -54t-54 -22t-54 22t-22 54t22 53t54 21t54 -21t22 -53z"/>
<glyph glyph-name="Agrave" horiz-adv-x="585" unicode="À" d="M336 272l-16 245l-146 -245h162zM574 23l-7 -23h-319l7 23q43 6 66 18q26 12 26 32q0 9 -4.5 81.5t-4.5 78.5h-187q-23 -40 -53 -96q-29 -52 -29 -68q0 -33 86 -46l-7 -23h-241l7 23q35 5 57 18q35 22 70 78q21 34 95 155.5t155 255.5t98 162h66q33 -494 38 -603 q2 -29 22 -47q17 -14 59 -19zM491 740l-15 -16q-48 38 -128 94q-30 20 -42 35t-12 40q0 21 14 37t36 16q21 0 35 -14.5t30 -45.5q19 -38 82 -146z"/>
<glyph glyph-name="Aacute" horiz-adv-x="585" unicode="Á" d="M336 272l-16 245l-146 -245h162zM574 23l-7 -23h-319l7 23q43 6 66 18q26 12 26 32q0 9 -4.5 81.5t-4.5 78.5h-187q-23 -40 -53 -96q-29 -52 -29 -68q0 -33 86 -46l-7 -23h-241l7 23q35 5 57 18q35 22 70 78q21 34 95 155.5t155 255.5t98 162h66q33 -494 38 -603 q2 -29 22 -47q17 -14 59 -19zM565 898q0 -25 -16 -42.5t-49 -38.5q-71 -44 -143 -93l-12 16q69 92 104 146q20 31 36 45.5t37 14.5q43 0 43 -48z"/>
<glyph glyph-name="Acircumflex" horiz-adv-x="585" unicode="Â" d="M336 272l-16 245l-146 -245h162zM574 23l-7 -23h-319l7 23q43 6 66 18q26 12 26 32q0 9 -4.5 81.5t-4.5 78.5h-187q-23 -40 -53 -96q-29 -52 -29 -68q0 -33 86 -46l-7 -23h-241l7 23q35 5 57 18q35 22 70 78q21 34 95 155.5t155 255.5t98 162h66q33 -494 38 -603 q2 -29 22 -47q17 -14 59 -19zM556 732l-18 -14l-97 130l-159 -130l-14 14q119 158 136 180q9 12 19 16t32 4q37 0 43 -18q5 -15 14 -43t22.5 -70.5t21.5 -68.5z"/>
<glyph glyph-name="Atilde" horiz-adv-x="585" unicode="Ã" d="M336 272l-16 245l-146 -245h162zM574 23l-7 -23h-319l7 23q43 6 66 18q26 12 26 32q0 9 -4.5 81.5t-4.5 78.5h-187q-23 -40 -53 -96q-29 -52 -29 -68q0 -33 86 -46l-7 -23h-241l7 23q35 5 57 18q35 22 70 78q21 34 95 155.5t155 255.5t98 162h66q33 -494 38 -603 q2 -29 22 -47q17 -14 59 -19zM613 897q-19 -50 -54.5 -90t-81.5 -40q-27 0 -65 20q-42 22 -65 22q-20 0 -34.5 -14t-34.5 -49l-20 9q59 129 134 129q25 0 73 -23q34 -18 53 -18q31 0 43.5 11.5t31.5 49.5z"/>
<glyph glyph-name="Adieresis" horiz-adv-x="585" unicode="Ä" d="M336 272l-16 245l-146 -245h162zM574 23l-7 -23h-319l7 23q43 6 66 18q26 12 26 32q0 9 -4.5 81.5t-4.5 78.5h-187q-23 -40 -53 -96q-29 -52 -29 -68q0 -33 86 -46l-7 -23h-241l7 23q35 5 57 18q35 22 70 78q21 34 95 155.5t155 255.5t98 162h66q33 -494 38 -603 q2 -29 22 -47q17 -14 59 -19zM406 835q0 -30 -23 -51.5t-50 -21.5t-43.5 19.5t-16.5 49.5t22.5 51.5t51.5 21.5q26 0 42.5 -19.5t16.5 -49.5zM592 835q0 -30 -23 -51.5t-50 -21.5t-43.5 19.5t-16.5 49.5t22.5 51.5t51.5 21.5q26 0 42.5 -19.5t16.5 -49.5z"/>
<glyph glyph-name="Aring" horiz-adv-x="585" unicode="Å" d="M336 272l-16 245l-146 -245h162zM487 847q0 60 -38 60q-28 0 -47.5 -34.5t-19.5 -74.5q0 -59 37 -59q29 0 48.5 33t19.5 75zM574 23l-7 -23h-319l7 23q43 6 66 18q26 12 26 32q0 9 -4.5 81.5t-4.5 78.5h-187q-23 -40 -53 -96q-29 -52 -29 -68q0 -33 86 -46l-7 -23h-241 l7 23q35 5 57 18q35 22 70 78q21 34 95 155.5t155 255.5t98 162h66q33 -494 38 -603q2 -29 22 -47q17 -14 59 -19zM547 842q0 -52 -38 -88.5t-94 -36.5q-44 0 -68.5 23.5t-24.5 63.5q0 50 36.5 87.5t94.5 37.5q43 0 68.5 -23.5t25.5 -63.5z"/>
<glyph glyph-name="AE" horiz-adv-x="836" unicode="Æ" d="M457 602h-3l-254 -330h173zM895 683l-45 -179h-24v8q-4 50 -19 90t-44 45q-32 5 -73 5h-74l-72 -282h44q54 0 86 28q32 29 59 96h25l-72 -285h-25q3 17 3 38q0 43 -10 63q-14 27 -72 27h-46l-57 -221q-7 -28 -7 -45q0 -23 17 -31.5t60 -8.5q97 0 124 24q61 55 123 154h23 l-64 -209h-544l6 23q55 7 70 13q29 12 39 49l37 148h-193q-4 -5 -34.5 -47t-35.5 -49q-41 -57 -41 -72q0 -30 78 -42l-6 -23h-244l6 23q39 5 61 18q35 20 81 78q85 108 406 519q-33 18 -69 22l6 23h517z"/>
<glyph glyph-name="Ccedilla" horiz-adv-x="555" unicode="Ç" d="M623 689l-62 -256h-26q-6 233 -130 233q-49 0 -92 -45.5t-70 -113.5t-42.5 -142.5t-15.5 -137.5q0 -186 116 -186q65 0 113 38t98 115l25 -16q-91 -172 -241 -191q-2 0 -7 -0.5t-7 -0.5l-11 -29q101 -6 101 -77q0 -36 -17.5 -60t-51 -35.5t-71.5 -16t-90 -4.5l9 28h11 q27 0 43.5 1.5t37 6.5t30.5 17.5t10 32.5q0 36 -62 36l36 99q-101 2 -165.5 74.5t-64.5 190.5q0 109 48.5 211.5t137.5 169t195 66.5q91 0 154 -45l32 37h29z"/>
<glyph glyph-name="Egrave" horiz-adv-x="566" unicode="È" d="M625 683l-45 -179h-24v8q-4 50 -19 90t-44 45q-32 5 -73 5h-74l-72 -282h44q54 0 86 28q32 29 59 96h25l-72 -285h-25q3 17 3 38q0 43 -10 63q-14 27 -72 27h-46l-57 -221q-7 -28 -7 -45q0 -23 17 -31.5t60 -8.5q97 0 124 24q61 55 123 154h23l-64 -209h-544l6 23 q55 7 70 13q29 12 39 49l124 487q7 30 7 41q0 20 -16 28q-30 15 -63 19l6 23h511zM485 740l-15 -16q-48 38 -128 94q-30 20 -42 35t-12 40q0 21 14 37t36 16q21 0 35 -14.5t30 -45.5q19 -38 82 -146z"/>
<glyph glyph-name="Eacute" horiz-adv-x="566" unicode="É" d="M625 683l-45 -179h-24v8q-4 50 -19 90t-44 45q-32 5 -73 5h-74l-72 -282h44q54 0 86 28q32 29 59 96h25l-72 -285h-25q3 17 3 38q0 43 -10 63q-14 27 -72 27h-46l-57 -221q-7 -28 -7 -45q0 -23 17 -31.5t60 -8.5q97 0 124 24q61 55 123 154h23l-64 -209h-544l6 23 q55 7 70 13q29 12 39 49l124 487q7 30 7 41q0 20 -16 28q-30 15 -63 19l6 23h511zM530 898q0 -25 -16 -42.5t-49 -38.5q-71 -44 -143 -93l-12 16q69 92 104 146q20 31 36 45.5t37 14.5q43 0 43 -48z"/>
<glyph glyph-name="Ecircumflex" horiz-adv-x="566" unicode="Ê" d="M625 683l-45 -179h-24v8q-4 50 -19 90t-44 45q-32 5 -73 5h-74l-72 -282h44q54 0 86 28q32 29 59 96h25l-72 -285h-25q3 17 3 38q0 43 -10 63q-14 27 -72 27h-46l-57 -221q-7 -28 -7 -45q0 -23 17 -31.5t60 -8.5q97 0 124 24q61 55 123 154h23l-64 -209h-544l6 23 q55 7 70 13q29 12 39 49l124 487q7 30 7 41q0 20 -16 28q-30 15 -63 19l6 23h511zM550 739l-18 -14l-97 130l-159 -130l-14 14q119 158 136 180q9 12 19 16t32 4q37 0 43 -18q5 -15 14 -43t22.5 -70.5t21.5 -68.5z"/>
<glyph glyph-name="Edieresis" horiz-adv-x="566" unicode="Ë" d="M625 683l-45 -179h-24v8q-4 50 -19 90t-44 45q-32 5 -73 5h-74l-72 -282h44q54 0 86 28q32 29 59 96h25l-72 -285h-25q3 17 3 38q0 43 -10 63q-14 27 -72 27h-46l-57 -221q-7 -28 -7 -45q0 -23 17 -31.5t60 -8.5q97 0 124 24q61 55 123 154h23l-64 -209h-544l6 23 q55 7 70 13q29 12 39 49l124 487q7 30 7 41q0 20 -16 28q-30 15 -63 19l6 23h511zM393 835q0 -30 -23 -51.5t-50 -21.5t-43.5 19.5t-16.5 49.5t22.5 51.5t51.5 21.5q26 0 42.5 -19.5t16.5 -49.5zM579 835q0 -30 -23 -51.5t-50 -21.5t-43.5 19.5t-16.5 49.5t22.5 51.5 t51.5 21.5q26 0 42.5 -19.5t16.5 -49.5z"/>
<glyph glyph-name="Igrave" horiz-adv-x="352" unicode="Ì" d="M437 683l-6 -23l-25 -5q-25 -5 -35 -9q-27 -9 -38 -49l-125 -490q-6 -24 -6 -38q0 -21 15 -30q17 -9 64 -16l-6 -23h-326l6 23q44 3 63 11q29 11 39 49l124 490q7 25 7 40q0 18 -16 28q-24 14 -65 19l6 23h324zM381 740l-15 -16q-48 38 -128 94q-30 20 -42 35t-12 40 q0 21 14 37t36 16q21 0 35 -14.5t30 -45.5q19 -38 82 -146z"/>
<glyph glyph-name="Iacute" horiz-adv-x="352" unicode="Í" d="M437 683l-6 -23l-25 -5q-25 -5 -35 -9q-27 -9 -38 -49l-125 -490q-6 -24 -6 -38q0 -21 15 -30q17 -9 64 -16l-6 -23h-326l6 23q44 3 63 11q29 11 39 49l124 490q7 25 7 40q0 18 -16 28q-24 14 -65 19l6 23h324zM416 898q0 -25 -16 -42.5t-49 -38.5q-71 -44 -143 -93 l-12 16q69 92 104 146q20 31 36 45.5t37 14.5q43 0 43 -48z"/>
<glyph glyph-name="Icircumflex" horiz-adv-x="352" unicode="Î" d="M437 683l-6 -23l-25 -5q-25 -5 -35 -9q-27 -9 -38 -49l-125 -490q-6 -24 -6 -38q0 -21 15 -30q17 -9 64 -16l-6 -23h-326l6 23q44 3 63 11q29 11 39 49l124 490q7 25 7 40q0 18 -16 28q-24 14 -65 19l6 23h324zM429 739l-18 -14l-97 130l-159 -130l-14 14 q119 158 136 180q9 12 19 16t32 4q37 0 43 -18q5 -15 14 -43t22.5 -70.5t21.5 -68.5z"/>
<glyph glyph-name="Idieresis" horiz-adv-x="352" unicode="Ï" d="M437 683l-6 -23l-25 -5q-25 -5 -35 -9q-27 -9 -38 -49l-125 -490q-6 -24 -6 -38q0 -21 15 -30q17 -9 64 -16l-6 -23h-326l6 23q44 3 63 11q29 11 39 49l124 490q7 25 7 40q0 18 -16 28q-24 14 -65 19l6 23h324zM279 835q0 -30 -23 -51.5t-50 -21.5t-43.5 19.5t-16.5 49.5 t22.5 51.5t51.5 21.5q26 0 42.5 -19.5t16.5 -49.5zM465 835q0 -30 -23 -51.5t-50 -21.5t-43.5 19.5t-16.5 49.5t22.5 51.5t51.5 21.5q26 0 42.5 -19.5t16.5 -49.5z"/>
<glyph glyph-name="Eth" horiz-adv-x="661" unicode="Ð" d="M515 458q0 91 -33.5 142t-94.5 51q-11 0 -43 -2l-70 -277h107l-10 -34h-106l-54 -213q-6 -24 -6 -41q0 -52 71 -52q74 0 130 64t82.5 159.5t26.5 202.5zM671 424q0 -193 -121.5 -308.5t-298.5 -115.5h-304l6 23q44 3 64 11q29 11 39 49l64 255h-70l10 34h69l51 201 q7 25 7 38q0 21 -17 32q-22 14 -57 17l6 23h283q35 0 70 -7t71.5 -26t64.5 -47t45.5 -74.5t17.5 -104.5z"/>
<glyph glyph-name="Ntilde" horiz-adv-x="651" unicode="Ñ" d="M765 683l-7 -23q-1 -1 -17.5 -4t-34.5 -8.5t-29 -13.5q-33 -23 -62 -136l-127 -501h-58l-218 560l-93 -367q-14 -52 -14 -90q0 -30 12 -46q9 -11 34 -20t40 -11l-6 -23h-255l6 23q58 9 83 26q33 23 62 136l86 335q10 40 10 60q0 23 -13 41q-20 28 -75 39l7 23h219 l187 -486l75 295q14 58 14 92q0 28 -12 44q-8 11 -34.5 20.5t-43.5 11.5l7 23h257zM640 897q-19 -50 -54.5 -90t-81.5 -40q-27 0 -65 20q-42 22 -65 22q-20 0 -34.5 -14t-34.5 -49l-20 9q59 129 134 129q25 0 73 -23q34 -18 53 -18q31 0 43.5 11.5t31.5 49.5z"/>
<glyph glyph-name="Ograve" horiz-adv-x="640" unicode="Ò" d="M500 472q0 194 -91 194q-53 0 -99 -51.5t-73.5 -126.5t-43 -149.5t-15.5 -128.5q0 -193 93 -193q53 0 98.5 53t72.5 128.5t42.5 149.5t15.5 124zM651 428q0 -105 -45.5 -205t-136.5 -169.5t-205 -69.5q-103 0 -170 74t-67 196q0 109 47.5 210t138 168t200.5 67 q105 0 171.5 -73.5t66.5 -197.5zM518 740l-15 -16q-48 38 -128 94q-30 20 -42 35t-12 40q0 21 14 37t36 16q21 0 35 -14.5t30 -45.5q19 -38 82 -146z"/>
<glyph glyph-name="Oacute" horiz-adv-x="640" unicode="Ó" d="M500 472q0 194 -91 194q-53 0 -99 -51.5t-73.5 -126.5t-43 -149.5t-15.5 -128.5q0 -193 93 -193q53 0 98.5 53t72.5 128.5t42.5 149.5t15.5 124zM651 428q0 -105 -45.5 -205t-136.5 -169.5t-205 -69.5q-103 0 -170 74t-67 196q0 109 47.5 210t138 168t200.5 67 q105 0 171.5 -73.5t66.5 -197.5zM537 899q0 -25 -16 -42.5t-49 -38.5q-71 -44 -143 -93l-12 16q69 92 104 146q20 31 36 45.5t37 14.5q43 0 43 -48z"/>
<glyph glyph-name="Ocircumflex" horiz-adv-x="640" unicode="Ô" d="M500 472q0 194 -91 194q-53 0 -99 -51.5t-73.5 -126.5t-43 -149.5t-15.5 -128.5q0 -193 93 -193q53 0 98.5 53t72.5 128.5t42.5 149.5t15.5 124zM651 428q0 -105 -45.5 -205t-136.5 -169.5t-205 -69.5q-103 0 -170 74t-67 196q0 109 47.5 210t138 168t200.5 67 q105 0 171.5 -73.5t66.5 -197.5zM554 739l-18 -14l-97 130l-159 -130l-14 14q119 158 136 180q9 12 19 16t32 4q37 0 43 -18q5 -15 14 -43t22.5 -70.5t21.5 -68.5z"/>
<glyph glyph-name="Otilde" horiz-adv-x="640" unicode="Õ" d="M500 472q0 194 -91 194q-53 0 -99 -51.5t-73.5 -126.5t-43 -149.5t-15.5 -128.5q0 -193 93 -193q53 0 98.5 53t72.5 128.5t42.5 149.5t15.5 124zM651 428q0 -105 -45.5 -205t-136.5 -169.5t-205 -69.5q-103 0 -170 74t-67 196q0 109 47.5 210t138 168t200.5 67 q105 0 171.5 -73.5t66.5 -197.5zM620 897q-19 -50 -54.5 -90t-81.5 -40q-27 0 -65 20q-42 22 -65 22q-20 0 -34.5 -14t-34.5 -49l-20 9q59 129 134 129q25 0 73 -23q34 -18 53 -18q31 0 43.5 11.5t31.5 49.5z"/>
<glyph glyph-name="Odieresis" horiz-adv-x="640" unicode="Ö" d="M500 472q0 194 -91 194q-53 0 -99 -51.5t-73.5 -126.5t-43 -149.5t-15.5 -128.5q0 -193 93 -193q53 0 98.5 53t72.5 128.5t42.5 149.5t15.5 124zM651 428q0 -105 -45.5 -205t-136.5 -169.5t-205 -69.5q-103 0 -170 74t-67 196q0 109 47.5 210t138 168t200.5 67 q105 0 171.5 -73.5t66.5 -197.5zM410 835q0 -30 -23 -51.5t-50 -21.5t-43.5 19.5t-16.5 49.5t22.5 51.5t51.5 21.5q26 0 42.5 -19.5t16.5 -49.5zM596 835q0 -30 -23 -51.5t-50 -21.5t-43.5 19.5t-16.5 49.5t22.5 51.5t51.5 21.5q26 0 42.5 -19.5t16.5 -49.5z"/>
<glyph glyph-name="multiply" horiz-adv-x="580" unicode="×" d="M540 104l-34 -34l-199 199l-198 -199l-33 33l199 198l-199 199l34 34l199 -199l198 199l33 -33l-199 -198z"/>
<glyph glyph-name="Oslash" horiz-adv-x="640" unicode="Ø" d="M500 493l-320 -330q10 -146 91 -146q53 0 98.5 53t72.5 128.5t42.5 149.5t15.5 124v21zM178 205l319 331q-13 130 -88 130q-53 0 -99 -51.5t-73.5 -126.5t-43 -149.5t-15.5 -128.5v-5zM69 92q-42 67 -42 162q0 109 47.5 210t138 168t200.5 67q106 0 171 -73l94 97l22 -23 l-96 -100q47 -69 47 -172q0 -105 -45.5 -205t-136.5 -169.5t-205 -69.5q-31 0 -66 20.5t-64.5 41t-46.5 20.5l-102 -104l-21 22z"/>
<glyph glyph-name="Ugrave" horiz-adv-x="656" unicode="Ù" d="M773 683l-6 -23q-56 -8 -81 -25q-33 -23 -62 -137l-71 -277q-30 -118 -100 -177.5t-167 -59.5q-100 0 -157.5 47.5t-57.5 125.5q0 36 8 66l90 352q7 25 7 38q0 19 -16 31q-13 10 -62 16l6 23h322l-6 -23q-3 -1 -15 -3t-24.5 -4.5t-19.5 -4.5q-28 -10 -39 -49l-96 -376 q-10 -42 -10 -74q0 -55 30 -83.5t85 -28.5q67 0 114.5 49t72.5 143l68 263q16 58 16 97q0 24 -11 39q-8 11 -35 21t-43 11l6 23h254zM559 740l-15 -16q-48 38 -128 94q-30 20 -42 35t-12 40q0 21 14 37t36 16q21 0 35 -14.5t30 -45.5q19 -38 82 -146z"/>
<glyph glyph-name="Uacute" horiz-adv-x="656" unicode="Ú" d="M773 683l-6 -23q-56 -8 -81 -25q-33 -23 -62 -137l-71 -277q-30 -118 -100 -177.5t-167 -59.5q-100 0 -157.5 47.5t-57.5 125.5q0 36 8 66l90 352q7 25 7 38q0 19 -16 31q-13 10 -62 16l6 23h322l-6 -23q-3 -1 -15 -3t-24.5 -4.5t-19.5 -4.5q-28 -10 -39 -49l-96 -376 q-10 -42 -10 -74q0 -55 30 -83.5t85 -28.5q67 0 114.5 49t72.5 143l68 263q16 58 16 97q0 24 -11 39q-8 11 -35 21t-43 11l6 23h254zM585 898q0 -25 -16 -42.5t-49 -38.5q-71 -44 -143 -93l-12 16q69 92 104 146q20 31 36 45.5t37 14.5q43 0 43 -48z"/>
<glyph glyph-name="Ucircumflex" horiz-adv-x="656" unicode="Û" d="M773 683l-6 -23q-56 -8 -81 -25q-33 -23 -62 -137l-71 -277q-30 -118 -100 -177.5t-167 -59.5q-100 0 -157.5 47.5t-57.5 125.5q0 36 8 66l90 352q7 25 7 38q0 19 -16 31q-13 10 -62 16l6 23h322l-6 -23q-3 -1 -15 -3t-24.5 -4.5t-19.5 -4.5q-28 -10 -39 -49l-96 -376 q-10 -42 -10 -74q0 -55 30 -83.5t85 -28.5q67 0 114.5 49t72.5 143l68 263q16 58 16 97q0 24 -11 39q-8 11 -35 21t-43 11l6 23h254zM607 739l-18 -14l-97 130l-159 -130l-14 14q119 158 136 180q9 12 19 16t32 4q37 0 43 -18q5 -15 14 -43t22.5 -70.5t21.5 -68.5z"/>
<glyph glyph-name="Udieresis" horiz-adv-x="656" unicode="Ü" d="M773 683l-6 -23q-56 -8 -81 -25q-33 -23 -62 -137l-71 -277q-30 -118 -100 -177.5t-167 -59.5q-100 0 -157.5 47.5t-57.5 125.5q0 36 8 66l90 352q7 25 7 38q0 19 -16 31q-13 10 -62 16l6 23h322l-6 -23q-3 -1 -15 -3t-24.5 -4.5t-19.5 -4.5q-28 -10 -39 -49l-96 -376 q-10 -42 -10 -74q0 -55 30 -83.5t85 -28.5q67 0 114.5 49t72.5 143l68 263q16 58 16 97q0 24 -11 39q-8 11 -35 21t-43 11l6 23h254zM459 835q0 -30 -23 -51.5t-50 -21.5t-43.5 19.5t-16.5 49.5t22.5 51.5t51.5 21.5q26 0 42.5 -19.5t16.5 -49.5zM645 835q0 -30 -23 -51.5 t-50 -21.5t-43.5 19.5t-16.5 49.5t22.5 51.5t51.5 21.5q26 0 42.5 -19.5t16.5 -49.5z"/>
<glyph glyph-name="Yacute" horiz-adv-x="590" unicode="Ý" d="M731 683l-6 -23q-31 -4 -54 -19q-40 -23 -78 -70q-82 -102 -174 -225q-32 -42 -43.5 -67.5t-24.5 -75.5l-24 -94q-7 -28 -7 -37q0 -23 16 -32q6 -4 31.5 -10t37.5 -7l-6 -23h-343l6 23q50 3 73 12q31 12 41 50l34 136q8 32 8 56q0 21 -7 52q-25 121 -56 246 q-12 47 -38 68q-20 15 -54 17l6 23h336l-6 -23q-95 -6 -95 -33t14 -93q27 -140 45 -208q29 35 140 190q70 98 70 110t-23 21.5t-53 12.5l6 23h228zM567 898q0 -25 -16 -42.5t-49 -38.5q-71 -44 -143 -93l-12 16q69 92 104 146q20 31 36 45.5t37 14.5q43 0 43 -48z"/>
<glyph glyph-name="Thorn" horiz-adv-x="566" unicode="Þ" d="M418 389q0 51 -23 84t-68 33h-18l-82 -321h23q86 0 127 57.5t41 146.5zM575 392q0 -114 -88 -176t-217 -62h-51l-12 -47q-7 -26 -7 -39q0 -19 16 -29q6 -4 29.5 -9.5t38.5 -6.5l-6 -23h-332l6 23q42 3 65 12q29 13 39 48l124 490q7 26 7 39q0 20 -16 29q-24 14 -63 19 l6 23h328l-6 -23q-42 -3 -65 -12q-29 -13 -39 -48l-16 -63h66q92 0 142.5 -39.5t50.5 -105.5z"/>
<glyph glyph-name="germandbls" horiz-adv-x="721" unicode="ß" d="M531 321l-150 -153h112zM688 225l-39 -156h-18q4 19 4 42q0 19 -22 19h-34l-14 -57q-4 -20 -4 -23q0 -14 9 -18q12 -8 39 -10l-5 -22h-213l5 22q30 2 47 7q18 5 23 28l18 73h-153l10 37l242 246h67l-61 -245h32q19 0 30 17q13 18 19 40h18zM687 680l-547 -705l-27 22 l545 705zM393 621q0 -85 -132 -108l-1 -6q42 0 75 -19.5t33 -60.5q0 -68 -57.5 -111t-136.5 -43q-54 0 -87 24.5t-33 67.5q0 36 20.5 56.5t49.5 20.5q20 0 31 -12.5t11 -28.5q0 -24 -20 -42t-20 -29q0 -12 10.5 -21.5t31.5 -9.5q43 0 71 47t28 100q0 39 -30 39 q-19 0 -48 -28l-15 32q46 25 66 39t35.5 37.5t15.5 55.5q0 24 -11 39.5t-28 15.5q-27 0 -42 -27q0 -2 5.5 -17t5.5 -26q0 -27 -14 -44.5t-40 -17.5q-22 0 -34 15t-12 37q0 45 43.5 75t106.5 30q55 0 88.5 -22t33.5 -58z"/>
<glyph glyph-name="agrave" horiz-adv-x="491" unicode="à" d="M322 372q-10 61 -48 61q-34 0 -67 -61.5t-52 -143.5t-19 -148q0 -20 7.5 -30.5t16.5 -10.5q39 0 90 89zM487 145q-27 -76 -59.5 -116t-78.5 -40q-44 0 -73 22t-30 68h-2q-28 -44 -56.5 -67t-71.5 -23q-46 0 -76.5 37t-30.5 123q0 128 78 225t171 97q27 0 48.5 -16.5 t25.5 -45.5h1l17 51h127l-101 -329q-24 -77 -24 -93q0 -14 13 -14q51 0 98 131zM394 540l-15 -16q-48 38 -128 94q-30 20 -42 35t-12 40q0 21 14 37t36 16q21 0 35 -14.5t30 -45.5q19 -38 82 -146z"/>
<glyph glyph-name="aacute" horiz-adv-x="491" unicode="á" d="M322 372q-10 61 -48 61q-34 0 -67 -61.5t-52 -143.5t-19 -148q0 -20 7.5 -30.5t16.5 -10.5q39 0 90 89zM487 145q-27 -76 -59.5 -116t-78.5 -40q-44 0 -73 22t-30 68h-2q-28 -44 -56.5 -67t-71.5 -23q-46 0 -76.5 37t-30.5 123q0 128 78 225t171 97q27 0 48.5 -16.5 t25.5 -45.5h1l17 51h127l-101 -329q-24 -77 -24 -93q0 -14 13 -14q51 0 98 131zM427 698q0 -25 -16 -42.5t-49 -38.5q-71 -44 -143 -93l-12 16q69 92 104 146q20 31 36 45.5t37 14.5q43 0 43 -48z"/>
<glyph glyph-name="acircumflex" horiz-adv-x="491" unicode="â" d="M322 372q-10 61 -48 61q-34 0 -67 -61.5t-52 -143.5t-19 -148q0 -20 7.5 -30.5t16.5 -10.5q39 0 90 89zM487 145q-27 -76 -59.5 -116t-78.5 -40q-44 0 -73 22t-30 68h-2q-28 -44 -56.5 -67t-71.5 -23q-46 0 -76.5 37t-30.5 123q0 128 78 225t171 97q27 0 48.5 -16.5 t25.5 -45.5h1l17 51h127l-101 -329q-24 -77 -24 -93q0 -14 13 -14q51 0 98 131zM445 546l-18 -14l-97 130l-159 -130l-14 14q119 158 136 180q9 12 19 16t32 4q37 0 43 -18q5 -15 14 -43t22.5 -70.5t21.5 -68.5z"/>
<glyph glyph-name="atilde" horiz-adv-x="491" unicode="ã" d="M322 372q-10 61 -48 61q-34 0 -67 -61.5t-52 -143.5t-19 -148q0 -20 7.5 -30.5t16.5 -10.5q39 0 90 89zM487 145q-27 -76 -59.5 -116t-78.5 -40q-44 0 -73 22t-30 68h-2q-28 -44 -56.5 -67t-71.5 -23q-46 0 -76.5 37t-30.5 123q0 128 78 225t171 97q27 0 48.5 -16.5 t25.5 -45.5h1l17 51h127l-101 -329q-24 -77 -24 -93q0 -14 13 -14q51 0 98 131zM500 697q-19 -50 -54.5 -90t-81.5 -40q-27 0 -65 20q-42 22 -65 22q-20 0 -34.5 -14t-34.5 -49l-20 9q59 129 134 129q25 0 73 -23q34 -18 53 -18q31 0 43.5 11.5t31.5 49.5z"/>
<glyph glyph-name="adieresis" horiz-adv-x="491" unicode="ä" d="M322 372q-10 61 -48 61q-34 0 -67 -61.5t-52 -143.5t-19 -148q0 -20 7.5 -30.5t16.5 -10.5q39 0 90 89zM487 145q-27 -76 -59.5 -116t-78.5 -40q-44 0 -73 22t-30 68h-2q-28 -44 -56.5 -67t-71.5 -23q-46 0 -76.5 37t-30.5 123q0 128 78 225t171 97q27 0 48.5 -16.5 t25.5 -45.5h1l17 51h127l-101 -329q-24 -77 -24 -93q0 -14 13 -14q51 0 98 131zM298 635q0 -30 -23 -51.5t-50 -21.5t-43.5 19.5t-16.5 49.5t22.5 51.5t51.5 21.5q26 0 42.5 -19.5t16.5 -49.5zM484 635q0 -30 -23 -51.5t-50 -21.5t-43.5 19.5t-16.5 49.5t22.5 51.5 t51.5 21.5q26 0 42.5 -19.5t16.5 -49.5z"/>
<glyph glyph-name="aring" horiz-adv-x="491" unicode="å" d="M322 372q-10 61 -48 61q-34 0 -67 -61.5t-52 -143.5t-19 -148q0 -20 7.5 -30.5t16.5 -10.5q39 0 90 89zM363 656q0 60 -38 60q-28 0 -47.5 -34.5t-19.5 -74.5q0 -59 37 -59q29 0 48.5 33t19.5 75zM487 145q-27 -76 -59.5 -116t-78.5 -40q-44 0 -73 22t-30 68h-2 q-28 -44 -56.5 -67t-71.5 -23q-46 0 -76.5 37t-30.5 123q0 128 78 225t171 97q27 0 48.5 -16.5t25.5 -45.5h1l17 51h127l-101 -329q-24 -77 -24 -93q0 -14 13 -14q51 0 98 131zM423 651q0 -52 -38 -88.5t-94 -36.5q-44 0 -68.5 23.5t-24.5 63.5q0 50 36.5 87.5t94.5 37.5 q43 0 68.5 -23.5t25.5 -63.5z"/>
<glyph glyph-name="ae" horiz-adv-x="950" unicode="æ" d="M689 183q-29 -66 -73.5 -103t-117.5 -37q-104 0 -170.5 64t-66.5 170q0 103 74 173t182 70q32 0 63 -10.5t42 -19.5l21 37h27l4 -181h-23q-49 144 -143 144q-43 0 -77 -53.5t-34 -154.5q0 -87 39 -141t97 -54q82 0 134 106zM881 281q0 162 -113.5 277t-275.5 115 q-163 0 -277 -115t-114 -277q0 -164 114 -279.5t277 -115.5t276 115.5t113 279.5zM927 281q0 -117 -58 -216.5t-158.5 -157.5t-218.5 -58q-181 0 -309 126.5t-128 305.5q0 116 58 215t159 157t220 58q180 0 307.5 -126.5t127.5 -303.5z"/>
<glyph glyph-name="ccedilla" horiz-adv-x="360" unicode="ç" d="M371 377q0 -39 -16.5 -64t-46.5 -25q-63 0 -63 62q0 22 19.5 42t49.5 27q-10 29 -46 29q-35 0 -66.5 -63.5t-48.5 -144t-17 -142.5q0 -71 42 -71t81 37t69 99l22 -12q-68 -143 -165 -161q-12 -2 -18 -2l-12 -31q95 -6 95 -76q0 -36 -16.5 -60t-48.5 -36t-68 -16.5 t-87 -4.5l9 28q28 0 44 1t38 6t32.5 17.5t10.5 32.5q0 37 -58 37l36 103q-59 6 -96 48t-37 124q0 45 18 97.5t49.5 100.5t82 80t109.5 32q42 0 72.5 -25.5t30.5 -68.5z"/>
<glyph glyph-name="egrave" horiz-adv-x="366" unicode="è" d="M270 394q0 52 -17 52q-26 0 -56.5 -63.5t-47.5 -151.5q61 17 91 62.5t30 100.5zM377 386q0 -139 -231 -178q-9 -53 -9 -108q0 -73 41 -73q91 0 155 134l22 -12q-77 -161 -192 -161q-68 0 -111 43.5t-43 125.5q0 69 32 140t96 122.5t143 51.5q43 0 70 -23.5t27 -61.5z M370 540l-15 -16q-48 38 -128 94q-30 20 -42 35t-12 40q0 21 14 37t36 16q21 0 35 -14.5t30 -45.5q19 -38 82 -146z"/>
<glyph glyph-name="eacute" horiz-adv-x="366" unicode="é" d="M270 394q0 52 -17 52q-26 0 -56.5 -63.5t-47.5 -151.5q61 17 91 62.5t30 100.5zM377 386q0 -139 -231 -178q-9 -53 -9 -108q0 -73 41 -73q91 0 155 134l22 -12q-77 -161 -192 -161q-68 0 -111 43.5t-43 125.5q0 69 32 140t96 122.5t143 51.5q43 0 70 -23.5t27 -61.5z M422 698q0 -25 -16 -42.5t-49 -38.5q-71 -44 -143 -93l-12 16q69 92 104 146q20 31 36 45.5t37 14.5q43 0 43 -48z"/>
<glyph glyph-name="ecircumflex" horiz-adv-x="366" unicode="ê" d="M270 394q0 52 -17 52q-26 0 -56.5 -63.5t-47.5 -151.5q61 17 91 62.5t30 100.5zM377 386q0 -139 -231 -178q-9 -53 -9 -108q0 -73 41 -73q91 0 155 134l22 -12q-77 -161 -192 -161q-68 0 -111 43.5t-43 125.5q0 69 32 140t96 122.5t143 51.5q43 0 70 -23.5t27 -61.5z M414 546l-18 -14l-97 130l-159 -130l-14 14q119 158 136 180q9 12 19 16t32 4q37 0 43 -18q5 -15 14 -43t22.5 -70.5t21.5 -68.5z"/>
<glyph glyph-name="edieresis" horiz-adv-x="366" unicode="ë" d="M270 394q0 52 -17 52q-26 0 -56.5 -63.5t-47.5 -151.5q61 17 91 62.5t30 100.5zM377 386q0 -139 -231 -178q-9 -53 -9 -108q0 -73 41 -73q91 0 155 134l22 -12q-77 -161 -192 -161q-68 0 -111 43.5t-43 125.5q0 69 32 140t96 122.5t143 51.5q43 0 70 -23.5t27 -61.5z M265 635q0 -30 -23 -51.5t-50 -21.5t-43.5 19.5t-16.5 49.5t22.5 51.5t51.5 21.5q26 0 42.5 -19.5t16.5 -49.5zM451 635q0 -30 -23 -51.5t-50 -21.5t-43.5 19.5t-16.5 49.5t22.5 51.5t51.5 21.5q26 0 42.5 -19.5t16.5 -49.5z"/>
<glyph glyph-name="igrave" horiz-adv-x="282" unicode="ì" d="M282 144q-28 -76 -60.5 -115.5t-78.5 -39.5q-44 0 -75.5 23.5t-31.5 67.5q0 35 14 75l62 173q26 74 26 96q0 13 -11 13q-49 0 -94 -132l-24 10q27 77 57 116.5t76 39.5q47 0 76.5 -26.5t29.5 -71.5q0 -27 -23 -93l-54 -150q-26 -74 -26 -91q0 -15 15 -15q53 0 98 130z M282 540l-15 -16q-48 38 -128 94q-30 20 -42 35t-12 40q0 21 14 37t36 16q21 0 35 -14.5t30 -45.5q19 -38 82 -146z"/>
<glyph glyph-name="iacute" horiz-adv-x="282" unicode="í" d="M282 144q-28 -76 -60.5 -115.5t-78.5 -39.5q-44 0 -75.5 23.5t-31.5 67.5q0 35 14 75l62 173q26 74 26 96q0 13 -11 13q-49 0 -94 -132l-24 10q27 77 57 116.5t76 39.5q47 0 76.5 -26.5t29.5 -71.5q0 -27 -23 -93l-54 -150q-26 -74 -26 -91q0 -15 15 -15q53 0 98 130z M326 698q0 -25 -16 -42.5t-49 -38.5q-71 -44 -143 -93l-12 16q69 92 104 146q20 31 36 45.5t37 14.5q43 0 43 -48z"/>
<glyph glyph-name="icircumflex" horiz-adv-x="282" unicode="î" d="M282 144q-28 -76 -60.5 -115.5t-78.5 -39.5q-44 0 -75.5 23.5t-31.5 67.5q0 35 14 75l62 173q26 74 26 96q0 13 -11 13q-49 0 -94 -132l-24 10q27 77 57 116.5t76 39.5q47 0 76.5 -26.5t29.5 -71.5q0 -27 -23 -93l-54 -150q-26 -74 -26 -91q0 -15 15 -15q53 0 98 130z M309 546l-18 -11l-82 127l-148 -127l-14 11q23 34 66.5 96.5t56.5 83.5q14 20 52 20q37 0 41 -20q18 -64 46 -180z"/>
<glyph glyph-name="idieresis" horiz-adv-x="282" unicode="ï" d="M287 144q-28 -76 -60.5 -115.5t-78.5 -39.5q-44 0 -75.5 23.5t-31.5 67.5q0 35 14 75l62 173q26 74 26 96q0 13 -11 13q-49 0 -94 -132l-24 10q27 77 57 116.5t76 39.5q47 0 76.5 -26.5t29.5 -71.5q0 -27 -23 -93l-54 -150q-26 -74 -26 -91q0 -15 15 -15q53 0 98 130z M190 643q0 -29 -21.5 -50.5t-48.5 -21.5t-44.5 20t-17.5 50q0 29 21.5 50.5t50.5 21.5q26 0 43 -20t17 -50zM365 643q0 -29 -22 -50.5t-49 -21.5t-44 20t-17 50q0 29 21 50.5t50 21.5q26 0 43.5 -20.5t17.5 -49.5z"/>
<glyph glyph-name="eth" horiz-adv-x="433" unicode="ð" d="M300 362q0 38 -10.5 60.5t-24.5 22.5q-36 0 -67.5 -61.5t-48.5 -142t-17 -147.5q0 -81 31 -81q36 0 69 60t50.5 140t17.5 149zM440 388q0 -102 -31.5 -192t-96.5 -149t-150 -59q-66 0 -109.5 49t-43.5 137q0 68 29 135t87 114.5t129 47.5q41 0 56 -34h3q1 6 1 18 q0 99 -34 174l-104 -70l-15 24l107 71q-27 48 -67 78l14 17q54 -22 99 -64l85 56l14 -24l-79 -52q49 -53 77.5 -129t28.5 -148z"/>
<glyph glyph-name="ntilde" horiz-adv-x="517" unicode="ñ" d="M517 144q-29 -79 -61 -117t-82 -38q-41 0 -71.5 26t-30.5 66q0 28 15 73l53 160q23 69 23 84q0 10 -6.5 17.5t-15.5 7.5q-43 0 -105 -112l-93 -311h-127l100 328q25 82 25 96q0 13 -13 13q-48 0 -94 -132l-24 10q27 78 58 117t78 39q40 0 70.5 -23.5t30.5 -73.5h2 q62 97 125 97q45 0 75 -32t30 -82q0 -16 -20 -76l-51 -151q-25 -74 -25 -92q0 -14 14 -14q50 0 96 130zM526 697q-19 -50 -54.5 -90t-81.5 -40q-27 0 -65 20q-42 22 -65 22q-20 0 -34.5 -14t-34.5 -49l-20 9q59 129 134 129q25 0 73 -23q34 -18 53 -18q31 0 43.5 11.5 t31.5 49.5z"/>
<glyph glyph-name="ograve" horiz-adv-x="431" unicode="ò" d="M299 370q0 77 -30 77q-53 0 -95 -117t-42 -241q0 -76 31 -76q35 0 67 56.5t50.5 139t18.5 161.5zM422 286q0 -116 -73.5 -207t-188.5 -91q-63 0 -107 48.5t-44 137.5q0 72 29.5 139t91.5 113t142 46q64 0 107 -49.5t43 -136.5zM384 540l-15 -16q-48 38 -128 94 q-30 20 -42 35t-12 40q0 21 14 37t36 16q21 0 35 -14.5t30 -45.5q19 -38 82 -146z"/>
<glyph glyph-name="oacute" horiz-adv-x="431" unicode="ó" d="M299 370q0 77 -30 77q-53 0 -95 -117t-42 -241q0 -76 31 -76q35 0 67 56.5t50.5 139t18.5 161.5zM422 286q0 -116 -73.5 -207t-188.5 -91q-63 0 -107 48.5t-44 137.5q0 72 29.5 139t91.5 113t142 46q64 0 107 -49.5t43 -136.5zM432 698q0 -25 -16 -42.5t-49 -38.5 q-71 -44 -143 -93l-12 16q69 92 104 146q20 31 36 45.5t37 14.5q43 0 43 -48z"/>
<glyph glyph-name="ocircumflex" horiz-adv-x="431" unicode="ô" d="M299 370q0 77 -30 77q-53 0 -95 -117t-42 -241q0 -76 31 -76q35 0 67 56.5t50.5 139t18.5 161.5zM422 286q0 -116 -73.5 -207t-188.5 -91q-63 0 -107 48.5t-44 137.5q0 72 29.5 139t91.5 113t142 46q64 0 107 -49.5t43 -136.5zM426 546l-18 -14l-97 130l-159 -130l-14 14 q119 158 136 180q9 12 19 16t32 4q37 0 43 -18q5 -15 14 -43t22.5 -70.5t21.5 -68.5z"/>
<glyph glyph-name="otilde" horiz-adv-x="431" unicode="õ" d="M299 370q0 77 -30 77q-53 0 -95 -117t-42 -241q0 -76 31 -76q35 0 67 56.5t50.5 139t18.5 161.5zM422 286q0 -116 -73.5 -207t-188.5 -91q-63 0 -107 48.5t-44 137.5q0 72 29.5 139t91.5 113t142 46q64 0 107 -49.5t43 -136.5zM479 697q-19 -50 -54.5 -90t-81.5 -40 q-27 0 -65 20q-42 22 -65 22q-20 0 -34.5 -14t-34.5 -49l-20 9q59 129 134 129q25 0 73 -23q34 -18 53 -18q31 0 43.5 11.5t31.5 49.5z"/>
<glyph glyph-name="odieresis" horiz-adv-x="431" unicode="ö" d="M299 370q0 77 -30 77q-53 0 -95 -117t-42 -241q0 -76 31 -76q35 0 67 56.5t50.5 139t18.5 161.5zM422 286q0 -116 -73.5 -207t-188.5 -91q-63 0 -107 48.5t-44 137.5q0 72 29.5 139t91.5 113t142 46q64 0 107 -49.5t43 -136.5zM275 635q0 -30 -23 -51.5t-50 -21.5 t-43.5 19.5t-16.5 49.5t22.5 51.5t51.5 21.5q26 0 42.5 -19.5t16.5 -49.5zM461 635q0 -30 -23 -51.5t-50 -21.5t-43.5 19.5t-16.5 49.5t22.5 51.5t51.5 21.5q26 0 42.5 -19.5t16.5 -49.5z"/>
<glyph glyph-name="divide" d="M316 96q0 -31 -21 -52.5t-51 -21.5t-51 21.5t-21 52.5t21 52.5t51 21.5t51 -21.5t21 -52.5zM448 232h-409v56h409v-56zM316 423q0 -31 -21 -52.5t-51 -21.5t-51 21.5t-21 52.5t21 52.5t51 21.5t51 -21.5t21 -52.5z" unicode="÷"/>
<glyph glyph-name="oslash" horiz-adv-x="716" unicode="ø" d="M680 297q0 -62 -54.5 -112t-179.5 -102l-1 -2h145q14 0 30 13.5t23 23.5t22 33l15 -7l-70 -144h-269l21 55q57 35 83.5 54t61.5 51q73 67 73 160q0 59 -40 59q-34 0 -49 -29q1 -3 6.5 -13t8.5 -19t3 -20q0 -24 -14 -45.5t-47 -21.5q-23 0 -35 17t-12 40q0 41 44 80 t112 39q55 0 89 -30t34 -80zM641 680l-547 -705l-27 22l545 705zM327 699q-20 -46 -36 -106l-55 -219q0 -1 -2 -8t-3 -12.5t-1 -8.5q0 -14 10 -20q20 -10 48 -10l-5 -22h-230l5 22q27 0 51 8q19 6 24 28l69 271h-11q-5 0 -9 0.5t-8.5 3t-7.5 3.5t-7.5 5t-7 5.5t-7 7t-6 7 t-6.5 8t-6 7.5l12 16q32 -17 71 -17q47 0 94 31h24z"/>
<glyph glyph-name="ugrave" horiz-adv-x="513" unicode="ù" d="M507 145q-27 -77 -59.5 -116.5t-79.5 -39.5q-40 0 -71 23.5t-31 73.5h-2q-34 -53 -62 -75t-60 -22q-45 0 -74.5 32t-29.5 83q0 18 19 75l51 151q25 74 25 92q0 14 -12 14q-47 0 -93 -130l-24 10q29 80 59.5 117.5t80.5 37.5q40 0 70 -26t30 -66q0 -28 -15 -73l-53 -160 q-23 -69 -23 -84q0 -10 6.5 -17.5t15.5 -7.5q40 0 102 112l93 311h128l-101 -328q-24 -78 -24 -96q0 -13 13 -13q51 0 97 132zM399 540l-15 -16q-48 38 -128 94q-30 20 -42 35t-12 40q0 21 14 37t36 16q21 0 35 -14.5t30 -45.5q19 -38 82 -146z"/>
<glyph glyph-name="uacute" horiz-adv-x="513" unicode="ú" d="M507 145q-27 -77 -59.5 -116.5t-79.5 -39.5q-40 0 -71 23.5t-31 73.5h-2q-34 -53 -62 -75t-60 -22q-45 0 -74.5 32t-29.5 83q0 18 19 75l51 151q25 74 25 92q0 14 -12 14q-47 0 -93 -130l-24 10q29 80 59.5 117.5t80.5 37.5q40 0 70 -26t30 -66q0 -28 -15 -73l-53 -160 q-23 -69 -23 -84q0 -10 6.5 -17.5t15.5 -7.5q40 0 102 112l93 311h128l-101 -328q-24 -78 -24 -96q0 -13 13 -13q51 0 97 132zM457 698q0 -25 -16 -42.5t-49 -38.5q-71 -44 -143 -93l-12 16q69 92 104 146q20 31 36 45.5t37 14.5q43 0 43 -48z"/>
<glyph glyph-name="ucircumflex" horiz-adv-x="513" unicode="û" d="M507 145q-27 -77 -59.5 -116.5t-79.5 -39.5q-40 0 -71 23.5t-31 73.5h-2q-34 -53 -62 -75t-60 -22q-45 0 -74.5 32t-29.5 83q0 18 19 75l51 151q25 74 25 92q0 14 -12 14q-47 0 -93 -130l-24 10q29 80 59.5 117.5t80.5 37.5q40 0 70 -26t30 -66q0 -28 -15 -73l-53 -160 q-23 -69 -23 -84q0 -10 6.5 -17.5t15.5 -7.5q40 0 102 112l93 311h128l-101 -328q-24 -78 -24 -96q0 -13 13 -13q51 0 97 132zM445 546l-18 -14l-97 130l-159 -130l-14 14q119 158 136 180q9 12 19 16t32 4q37 0 43 -18q5 -15 14 -43t22.5 -70.5t21.5 -68.5z"/>
<glyph glyph-name="udieresis" horiz-adv-x="513" unicode="ü" d="M507 145q-27 -77 -59.5 -116.5t-79.5 -39.5q-40 0 -71 23.5t-31 73.5h-2q-34 -53 -62 -75t-60 -22q-45 0 -74.5 32t-29.5 83q0 18 19 75l51 151q25 74 25 92q0 14 -12 14q-47 0 -93 -130l-24 10q29 80 59.5 117.5t80.5 37.5q40 0 70 -26t30 -66q0 -28 -15 -73l-53 -160 q-23 -69 -23 -84q0 -10 6.5 -17.5t15.5 -7.5q40 0 102 112l93 311h128l-101 -328q-24 -78 -24 -96q0 -13 13 -13q51 0 97 132zM303 635q0 -30 -23 -51.5t-50 -21.5t-43.5 19.5t-16.5 49.5t22.5 51.5t51.5 21.5q26 0 42.5 -19.5t16.5 -49.5zM489 635q0 -30 -23 -51.5 t-50 -21.5t-43.5 19.5t-16.5 49.5t22.5 51.5t51.5 21.5q26 0 42.5 -19.5t16.5 -49.5z"/>
<glyph glyph-name="yacute" horiz-adv-x="480" unicode="ý" d="M499 460l-100 -354q-29 -101 -66 -169t-82.5 -102.5t-89.5 -47.5t-99 -13q-50 0 -82 27t-32 70q0 28 18.5 52t50.5 24q29 0 48 -17t19 -50q0 -18 -9.5 -35t-22.5 -25q-10 -5 -10 -9q0 -12 22 -12q70 0 114 65.5t91 219.5h-2q-60 -94 -125 -94q-45 0 -74.5 32t-29.5 83 q0 17 19 74l51 151q25 74 25 92q0 14 -12 14q-47 0 -93 -130l-24 10q29 80 59.5 117.5t80.5 37.5q40 0 70 -26t30 -66q0 -28 -15 -73l-53 -160q-23 -69 -23 -83q0 -11 7 -18t17 -7q43 0 104 111l91 311h127zM449 698q0 -25 -16 -42.5t-49 -38.5q-71 -44 -143 -93l-12 16 q69 92 104 146q20 31 36 45.5t37 14.5q43 0 43 -48z"/>
<glyph glyph-name="thorn" horiz-adv-x="444" unicode="þ" d="M308 384q0 37 -25 37q-15 0 -32 -14t-28 -29.5t-30 -46.5l-70 -242q5 -32 16 -47t31 -15q35 0 68 61.5t51.5 144t18.5 151.5zM435 311q0 -128 -78 -225t-171 -97q-27 0 -48 17t-25 46h-1l-42 -156q-14 -52 -14 -65q0 -23 37 -29q30 -4 57 -6l-5 -22h-303l5 22q49 0 66 22 q16 21 33 82l201 710q12 41 12 66q0 24 -34 29q-27 5 -57 6v23l245 12l-102 -344l3 -1q48 70 113 70q47 0 77.5 -37t30.5 -123z"/>
<glyph glyph-name="OE" horiz-adv-x="765" unicode="Œ" d="M149 -31l-6 4l90 273l-229 163v9h285l89 274h9l89 -274h285v-9l-229 -163l90 -272l-7 -5l-233 168z"/>
<glyph glyph-name="oe" horiz-adv-x="675" unicode="œ" d="M485 321l-150 -153h112zM642 225l-39 -156h-18q4 19 4 42q0 19 -22 19h-34l-14 -57q-4 -20 -4 -23q0 -14 9 -18q12 -8 39 -10l-5 -22h-213l5 22q30 2 47 7q18 5 23 28l18 73h-153l10 37l242 246h67l-59 -245h30q19 0 30 17q13 18 19 40h18zM641 680l-547 -705l-27 22 l545 705zM327 699q-20 -46 -36 -106l-55 -219q0 -1 -2 -8t-3 -12.5t-1 -8.5q0 -14 10 -20q20 -10 48 -10l-5 -22h-230l5 22q27 0 51 8q19 6 24 28l69 271h-11q-5 0 -9 0.5t-8.5 3t-7.5 3.5t-7.5 5t-7 5.5t-7 7t-6 7t-6.5 8t-6 7.5l12 16q32 -17 71 -17q47 0 94 31h24z"/>
<glyph glyph-name="Scaron" horiz-adv-x="511" unicode="Š" d="M557 690l-58 -237h-23q-4 60 -18 105t-46 76.5t-79 31.5q-48 0 -82.5 -38t-34.5 -88q0 -72 77 -114q16 -9 48 -28t45 -26q98 -57 98 -153q0 -101 -79 -167.5t-205 -66.5q-95 0 -169 55l-37 -46h-30l62 252h24q5 -56 22 -105.5t54 -86.5t87 -37q58 0 94.5 40.5t36.5 95.5 q0 40 -18.5 67t-60.5 49q-52 27 -92 53q-90 55 -90 159q0 89 74 153t188 64q90 0 151 -46l30 38h31zM544 925q-119 -158 -136 -180q-9 -12 -19 -16t-32 -4q-37 0 -43 18q-5 15 -14 43t-22.5 70.5t-21.5 68.5l18 14l97 -130l159 130z"/>
<glyph glyph-name="scaron" horiz-adv-x="364" unicode="š" d="M366 371q0 -37 -16 -60.5t-46 -23.5q-58 0 -58 56q0 17 11.5 29.5t23.5 18t27.5 10.5t16.5 5q-3 12 -25.5 25t-53.5 13q-26 0 -45.5 -18.5t-19.5 -53.5t40 -75q7 -7 28 -26.5t30 -29.5q51 -53 51 -112q0 -60 -51 -101.5t-141 -41.5q-66 0 -105 32.5t-39 81.5q0 39 21 66 t49 27q31 0 47.5 -17t16.5 -43t-13.5 -43.5t-42.5 -17.5q-6 0 -18 2.5t-15 2.5h-2q-6 0 -6 -6q0 -21 30 -39.5t67 -18.5q86 0 86 77q0 34 -44 80q-8 9 -32 31.5t-36 36.5q-41 47 -41 95q0 58 49 98t129 40q54 0 90.5 -29t36.5 -71zM438 725q-119 -158 -136 -180 q-9 -12 -19 -16t-32 -4q-37 0 -43 18q-5 15 -14 43t-22.5 70.5t-21.5 68.5l18 14l97 -130l159 130z"/>
<glyph glyph-name="Ydieresis" horiz-adv-x="590" unicode="Ÿ" d="M731 683l-6 -23q-31 -4 -54 -19q-40 -23 -78 -70q-82 -102 -174 -225q-32 -42 -43.5 -67.5t-24.5 -75.5l-24 -94q-7 -28 -7 -37q0 -23 16 -32q6 -4 31.5 -10t37.5 -7l-6 -23h-343l6 23q50 3 73 12q31 12 41 50l34 136q8 32 8 56q0 21 -7 52q-25 121 -56 246 q-12 47 -38 68q-20 15 -54 17l6 23h336l-6 -23q-95 -6 -95 -33t14 -93q27 -140 45 -208q29 35 140 190q70 98 70 110t-23 21.5t-53 12.5l6 23h228zM432 835q0 -30 -23 -51.5t-50 -21.5t-43.5 19.5t-16.5 49.5t22.5 51.5t51.5 21.5q26 0 42.5 -19.5t16.5 -49.5zM618 835 q0 -30 -23 -51.5t-50 -21.5t-43.5 19.5t-16.5 49.5t22.5 51.5t51.5 21.5q26 0 42.5 -19.5t16.5 -49.5z"/>
<glyph glyph-name="circumflex" horiz-adv-x="435" unicode="ˆ" d="M421 546l-18 -14l-97 130l-159 -130l-14 14q119 158 136 180q9 12 19 16t32 4q37 0 43 -18q5 -15 14 -43t22.5 -70.5t21.5 -68.5z"/>
<glyph glyph-name="tilde" horiz-adv-x="435" unicode="˜" d="M499 697q-19 -50 -54.5 -90t-81.5 -40q-27 0 -65 20q-42 22 -65 22q-20 0 -34.5 -14t-34.5 -49l-20 9q59 129 134 129q25 0 73 -23q34 -18 53 -18q31 0 43.5 11.5t31.5 49.5z"/>
<glyph glyph-name="pi" horiz-adv-x="950" unicode="π" d="M611 373q0 100 -91 100h-43v-203h30q32 0 54.5 11.5t32 29.5t13.5 33t4 29zM742 390q0 -67 -54.5 -109t-127.5 -42h-83v-128q0 -23 21 -30q23 -8 73 -10v-21h-296v21q34 2 60 10q23 8 23 30v328q0 25 -23 31q-40 11 -63 12v21h318q65 0 108.5 -31t43.5 -82zM881 281 q0 162 -113.5 277t-275.5 115q-163 0 -277 -115t-114 -277q0 -164 114 -279.5t277 -115.5t276 115.5t113 279.5zM927 281q0 -117 -58 -216.5t-158.5 -157.5t-218.5 -58q-181 0 -309 126.5t-128 305.5q0 116 58 215t159 157t220 58q180 0 307.5 -126.5t127.5 -303.5z"/>
<glyph glyph-name="endash" horiz-adv-x="376" unicode="–" d="M360 302l-18 -68h-315l18 68h315z"/>
<glyph glyph-name="emdash" horiz-adv-x="770" unicode="—" d="M728 286l-20 -71h-653l20 71h653z"/>
<glyph glyph-name="quoteleft" horiz-adv-x="198" unicode="‘" d="M280 723q-48 -24 -85 -61t-45 -75h22q70 0 70 -58q0 -35 -23.5 -57t-57.5 -22t-50.5 22t-16.5 57q0 136 176 217z"/>
<glyph glyph-name="quotesinglbase" horiz-adv-x="198" unicode="‚" d="M170 69q0 -136 -176 -217l-10 23q48 24 85 61t45 76h-22q-70 0 -70 57q0 35 23.5 57t57.5 22q67 0 67 -79z"/>
<glyph glyph-name="quotedblleft" horiz-adv-x="362" unicode="“" d="M279 723q-49 -24 -85.5 -61t-44.5 -76h22q69 0 69 -57q0 -35 -23 -57t-57 -22q-66 0 -66 79q0 137 175 217zM445 723q-49 -24 -85.5 -61t-44.5 -76h22q69 0 69 -57q0 -35 -23 -57t-57 -22q-66 0 -66 79q0 137 175 217z"/>
<glyph glyph-name="quotedblright" horiz-adv-x="362" unicode="”" d="M266 667q0 -137 -176 -218l-8 23q48 24 84.5 61.5t44.5 76.5h-22q-69 0 -69 57q0 35 23 57t57 22q66 0 66 -79zM432 667q0 -137 -176 -218l-8 23q48 24 84.5 61.5t44.5 76.5h-22q-69 0 -69 57q0 35 23 57t57 22q66 0 66 -79z"/>
<glyph glyph-name="dagger" horiz-adv-x="359" unicode="†" d="M422 529q0 -23 -14.5 -37t-33.5 -14q-21 0 -33 17.5t-19 35t-15 17.5q-7 0 -10 -5t-10 -23q-21 -59 -66.5 -193.5t-59.5 -176.5l-17 4q77 371 79 383q3 15 3 24q0 12 -10 12q-7 0 -29.5 -17.5t-37.5 -17.5q-19 0 -32 13t-13 33q0 19 9.5 32.5t27.5 13.5q15 0 23 -12.5 t8 -31.5h1q2 0 16.5 4t23.5 4q11 0 26 -6.5t19 -15.5q4 23 4 76v28q0 32 12 51t33 19q15 0 23 -12.5t8 -28.5q0 -22 -27.5 -68.5t-34.5 -68.5q7 3 23 3q15 0 27.5 -7.5t20 -16.5t10.5 -10q12 25 36 25q13 0 21 -9.5t8 -23.5z"/>
<glyph glyph-name="daggerdbl" horiz-adv-x="368" unicode="‡" d="M309 167q0 -15 -9 -27t-26 -12q-32 0 -32 43q-2 0 -10 -1t-14 -1q-10 0 -24 6.5t-20 15.5v-7q0 -10 3.5 -29.5t3.5 -29.5q0 -22 -10.5 -40t-31.5 -18q-31 0 -31 38q0 19 9 35t22 31t17 25q-7 -4 -20 -4q-11 0 -20 2.5t-13 5t-9.5 8t-6.5 5.5q-12 -26 -35 -26q-13 0 -22 9 t-9 22q0 18 10.5 31t26.5 13q20 0 30.5 -12t17.5 -23.5t18 -11.5q6 0 10.5 4.5t7 9t7.5 18.5q21 49 59 143l18 -5q-4 -21 -8 -53t-7.5 -64t-4.5 -37q-2 -18 -2 -27q0 -14 17 -14q8 0 22 7.5t24 7.5q42 0 42 -38zM423 595q0 -18 -10.5 -31t-26.5 -13t-26 7.5t-14 16t-10.5 16 t-15.5 7.5q-6 0 -10.5 -4.5t-7 -9t-7.5 -18.5q-21 -49 -59 -143l-18 5q4 21 8 53t7.5 64t4.5 37q2 18 2 27q0 14 -17 14q-8 0 -22 -7.5t-24 -7.5q-42 0 -42 38q0 15 9 27t26 12q32 0 32 -43q2 0 10 1t14 1q10 0 24 -6.5t20 -15.5v7q0 10 -3.5 29.5t-3.5 29.5q0 22 10.5 40 t31.5 18q31 0 31 -38q0 -19 -9 -35t-22 -31t-17 -25q7 4 20 4q11 0 20 -2.5t13 -5t9.5 -8t6.5 -5.5q12 26 35 26q13 0 22 -9t9 -22z"/>
<glyph glyph-name="ellipsis" horiz-adv-x="711" unicode="…" d="M173 67q0 -33 -22.5 -56t-55.5 -23q-32 0 -55 23t-23 56q0 32 23 55t55 23q33 0 55.5 -23t22.5 -55zM410 67q0 -33 -22.5 -56t-55.5 -23q-32 0 -55 23t-23 56q0 32 23 55t55 23q33 0 55.5 -23t22.5 -55zM647 67q0 -33 -22.5 -56t-55.5 -23q-32 0 -55 23t-23 56 q0 32 23 55t55 23q33 0 55.5 -23t22.5 -55z"/>
<glyph glyph-name="perthousand" horiz-adv-x="1140" unicode="‰" d="M643 310q0 65 -35 65q-44 0 -80.5 -104t-36.5 -197q0 -65 36 -65q43 0 79.5 105t36.5 196zM1012 310q0 65 -35 65q-44 0 -80.5 -104t-36.5 -197q0 -65 36 -65q43 0 79.5 105t36.5 196zM330 609q0 65 -36 65q-43 0 -79.5 -105t-36.5 -196q0 -65 35 -65q44 0 80.5 104 t36.5 197zM742 256q0 -109 -68.5 -191.5t-153.5 -82.5q-62 0 -95 39.5t-33 103.5q0 108 67 192.5t156 84.5q63 0 95 -40.5t32 -105.5zM1111 256q0 -109 -68.5 -191.5t-153.5 -82.5q-62 0 -95 39.5t-33 103.5q0 108 67 192.5t156 84.5q63 0 95 -40.5t32 -105.5zM696 680 l-547 -705l-27 22l545 705zM429 558q0 -108 -67 -192.5t-156 -84.5q-63 0 -95 40.5t-32 105.5q0 109 68.5 191.5t153.5 82.5q62 0 95 -39.5t33 -103.5z"/>
<glyph glyph-name="guilsinglleft" horiz-adv-x="298" unicode="‹" d="M299 419l-168 -204l67 -187l-14 -11q-34 42 -81 92.5t-58 64.5q-14 17 -14 30q0 41 38 68q180 130 219 160z"/>
<glyph glyph-name="guilsinglright" horiz-adv-x="298" unicode="›" d="M265 242q0 -41 -38 -68q-180 -130 -219 -160l-11 13l168 204l-67 187l14 11q34 -42 81 -92.5t58 -64.5q14 -17 14 -30z"/>
<glyph glyph-name="fraction" horiz-adv-x="300" unicode="⁄" d="M455 680l-547 -705l-27 22l545 705z"/>
<glyph glyph-name="trademark" horiz-adv-x="590" unicode="™" d="M330 609h-10q-17 52 -32 54q-8 1 -26 1h-12v-195q0 -12 10 -17q16 -4 28 -6v-13h-127v13q27 4 29 5q11 5 11 16v197h-13q-18 0 -26 -1q-9 -1 -19 -19.5t-14 -34.5h-10v74h211v-74zM663 433h-127v13q32 5 33 6q8 5 8 18v174h-5l-76 -208h-12q-8 31 -16 52l-53 151h-6v-132 q0 -38 11 -49q6 -6 34 -12v-13h-108v13q27 5 32 9q11 9 11 49v124q0 20 -10 30q-16 11 -30 11v14h100l58 -167l46 134q5 13 7 33h102v-14q-9 0 -27 -6q-9 -5 -9 -17v-176q0 -12 9 -17q5 -4 28 -7v-13z"/>
<glyph glyph-name="partialdiff" horiz-adv-x="617" unicode="∂" d="M370 278q0 29 -19 48.5t-48 19.5q-28 0 -47.5 -19.5t-19.5 -48.5t19.5 -49.5t47.5 -20.5q29 0 48 20t19 50zM597 291q0 -31 -21.5 -52.5t-53.5 -21.5q-24 0 -56.5 23t-59.5 27l-9 -8q-6 -35 -39 -60l-1 -10q15 -20 53 -39q55 -26 55 -76q0 -30 -23 -53t-55 -23 q-31 0 -53 21.5t-22 53.5q0 14 9 43t9 51v11l-7 5q-7 -1 -20 -1q-30 0 -56 18l-13 -1q-15 -22 -21 -61q-14 -83 -78 -83q-31 0 -54 22.5t-23 54.5t24 53.5t59 21.5h12q37 0 62 13l3 14q-10 22 -10 43q0 13 3 25l-5 13q-9 3 -27 3q-15 0 -35 -3.5t-29 -3.5q-33 0 -55 22.5 t-22 53.5t22 54t54 23q45 0 67 -42q4 -7 9 -24t11.5 -31.5t17.5 -25.5l15 1q28 30 69 30l11 7q0 28 -17 61.5t-17 52.5q0 32 22 52.5t54 20.5t53 -22.5t21 -53.5q0 -22 -10 -37.5t-22.5 -23t-29 -22.5t-26.5 -33l4 -12q38 -20 48 -58l12 -6q23 8 54.5 39t63.5 31 q30 0 51.5 -22.5t21.5 -54.5z"/>
<glyph glyph-name="product" horiz-adv-x="716" unicode="∏" d="M680 144l-70 -144h-269l21 55q57 35 83.5 54t61.5 51q73 67 73 160q0 59 -40 59q-34 0 -49 -29q1 -3 6.5 -13t8.5 -19t3 -20q0 -24 -14 -45.5t-47 -21.5q-23 0 -35 17t-12 40q0 41 44 80t112 39q55 0 89 -30t34 -80q0 -62 -53.5 -111t-181.5 -105h145q14 0 30 13.5 t23 23.5t22 33zM641 680l-547 -705l-27 22l545 705zM327 699q-20 -46 -36 -106l-55 -219q0 -1 -2 -8t-3 -12.5t-1 -8.5q0 -14 10 -20q20 -10 48 -10l-5 -22h-230l5 22q27 0 51 8q19 6 24 28l69 271h-11q-5 0 -9 0.5t-8.5 3t-7.5 3.5t-7.5 5t-7 5.5t-7 7t-6 7t-6.5 8t-6 7.5 l12 16q32 -17 71 -17q47 0 94 31h24z"/>
<glyph glyph-name="summation" horiz-adv-x="675" unicode="∑" d="M485 321l-150 -153h112zM642 225l-39 -156h-18q4 19 4 42q0 19 -22 19h-34l-14 -57q-4 -20 -4 -23q0 -14 9 -18q12 -8 39 -10l-5 -22h-213l5 22q30 2 47 7q18 5 23 28l18 73h-153l10 37l242 246h67l-61 -245h32q19 0 30 17q13 18 19 40h18zM641 680l-547 -705l-27 22 l545 705zM327 699q-20 -46 -36 -106l-55 -219q0 -1 -2 -8t-3 -12.5t-1 -8.5q0 -14 10 -20q20 -10 48 -10l-5 -22h-230l5 22q27 0 51 8q19 6 24 28l69 271h-11q-5 0 -9 0.5t-8.5 3t-7.5 3.5t-7.5 5t-7 5.5t-7 7t-6 7t-6.5 8t-6 7.5l12 16q32 -17 71 -17q47 0 94 31h24z"/>
<glyph glyph-name="minus" horiz-adv-x="580" unicode="−" d="M549 277h-482v46h482v-46z"/>
<glyph glyph-name="radical" horiz-adv-x="721" unicode="√" d="M531 321l-150 -153h112zM688 225l-39 -156h-18q4 19 4 42q0 19 -22 19h-34l-14 -57q-4 -20 -4 -23q0 -14 9 -18q12 -8 39 -10l-5 -22h-213l5 22q30 2 47 7q18 5 23 28l18 73h-153l10 37l242 246h67l-61 -245h32q19 0 30 17q13 18 19 40h18zM687 680l-547 -705l-27 22 l545 705zM393 621q0 -85 -132 -108l-1 -6q42 0 75 -19.5t33 -60.5q0 -68 -57.5 -111t-136.5 -43q-54 0 -87 24.5t-33 67.5q0 36 20.5 56.5t49.5 20.5q20 0 31 -12.5t11 -28.5q0 -24 -20 -42t-20 -29q0 -12 10.5 -21.5t31.5 -9.5q43 0 71 47t28 100q0 39 -30 39 q-19 0 -48 -28l-15 32q46 25 66 39t35.5 37.5t15.5 55.5q0 24 -11 39.5t-28 15.5q-27 0 -42 -27q0 -2 5.5 -17t5.5 -26q0 -27 -14 -44.5t-40 -17.5q-22 0 -34 15t-12 37q0 45 43.5 75t106.5 30q55 0 88.5 -22t33.5 -58z"/>
<glyph glyph-name="infinity" horiz-adv-x="762" unicode="∞" d="M99 -61q9 3 19 3q27 0 45 -18.5t18 -46.5q0 -14 -6 -25.5t-16 -23t-13 -16.5q-4 -14 6 -14q44 0 64.5 40.5t51.5 157.5q3 9 4 14q36 135 94 407h-140q-8 -35 -27.5 -121t-34.5 -148.5t-29 -110.5q-15 -54 -36 -98zM377 455l8 31q12 49 30 86q-1 0 -4 -0.5t-5 -0.5 q-24 0 -41.5 16.5t-17.5 42.5q0 18 16.5 45t16.5 30q-3 13 -25 13q-31 0 -55 -47.5t-52 -159.5l-14 -56h143zM768 640q0 -27 -18 -52t-50 -25q-71 0 -71 65q0 19 15.5 46.5t15.5 30.5q-4 15 -31 15q-33 0 -60.5 -49t-54.5 -160l-14 -56h133l109 5q-4 -61 -42 -176l-52 -156 q-25 -77 -25 -89q0 -15 15 -15q51 0 97 130l24 -10q-27 -78 -60.5 -116.5t-79.5 -38.5q-42 0 -73.5 23.5t-31.5 64.5q0 36 13 74l60 178q17 49 20 89h-115q-9 -36 -28 -121.5t-34 -148.5t-29 -111q-39 -134 -104 -199q-64 -64 -149 -64q-45 0 -71 23t-29 60q-5 -7 -17 -19 q-62 -64 -149 -64q-48 0 -74 26t-26 67q0 28 19.5 51.5t50.5 23.5q27 0 45 -18.5t18 -46.5q0 -14 -6 -25.5t-16 -23t-13 -16.5q-4 -14 6 -14q44 0 64.5 40.5t51.5 157.5q3 9 4 14q36 135 94 407h-75l11 38h75l8 31q34 132 108 200q63 59 144 59q45 0 73 -20t35 -52 q2 2 7 6.5t7 6.5q63 59 144 59q62 0 96.5 -29.5t34.5 -75.5z"/>
<glyph glyph-name="approxequal" horiz-adv-x="580" unicode="≈" d="M540 104l-34 -34l-199 199l-198 -199l-33 33l199 198l-199 199l34 34l199 -199l198 199l33 -33l-199 -198z"/>
<glyph glyph-name="notequal" horiz-adv-x="532" unicode="≠" d="M99 -61q9 3 19 3q27 0 45 -18.5t18 -46.5q0 -14 -6 -25.5t-16 -23t-13 -16.5q-4 -14 6 -14q44 0 64.5 40.5t51.5 157.5q3 9 4 14q36 135 94 407h-140q-8 -35 -27.5 -121t-34.5 -148.5t-29 -110.5q-15 -54 -36 -98zM415 572q-4 -1 -11 -1q-24 0 -40.5 16.5t-16.5 42.5 q0 18 16.5 45t16.5 30q-3 13 -25 13q-31 0 -55 -47.5t-52 -159.5l-14 -56h143l8 31q12 49 30 86zM48 -143q-5 -7 -17 -19q-62 -64 -149 -64q-48 0 -74 26t-26 67q0 28 19.5 51.5t50.5 23.5q27 0 45 -18.5t18 -46.5q0 -14 -6 -25.5t-16 -23t-13 -16.5q-4 -14 6 -14 q44 0 64.5 40.5t51.5 157.5q3 9 4 14q36 135 94 407h-75l11 38h75l8 31q34 132 108 200q63 59 144 59q45 0 73 -20t35 -52q2 2 7 6.5t7 6.5q63 59 144 59q54 0 82.5 -27.5t28.5 -68.5q0 -29 -18.5 -53t-50.5 -24q-66 0 -66 58q0 18 16.5 45t16.5 30q-3 13 -25 13 q-31 0 -55 -47.5t-52 -159.5l-14 -56h97l-12 -38h-93q-8 -35 -27.5 -121t-34.5 -148.5t-29 -110.5q-39 -134 -104 -199q-64 -64 -149 -64q-45 0 -71 23t-29 60z"/>
<glyph glyph-name="lessequal" horiz-adv-x="633" unicode="≤" d="M457 539q0 56 -25 85t-71 29h-15l-75 -295h9q84 0 130.5 53t46.5 128zM625 23l-6 -23h-246q4 42 4 85v33q0 56 -4 107q-4 53 -23 77.5t-61 24.5h-26l-56 -220q-7 -26 -7 -38q0 -19 17 -30q19 -12 64 -16l-6 -23h-329l6 23q50 6 65 12q29 12 39 49l124 489q8 29 8 41 q0 20 -17 28q-22 13 -63 18l6 23h294q101 0 153 -35t52 -100q0 -76 -55 -126t-152 -73v-6q37 -5 69.5 -34t40.5 -80q4 -24 7.5 -69t5.5 -58q5 -30 12.5 -42.5t27.5 -22.5q25 -12 56 -14z"/>
<glyph glyph-name="greaterequal" horiz-adv-x="416" unicode="≥" d="M436 387q0 -36 -18.5 -63t-51.5 -27q-31 0 -47.5 16t-16.5 44q0 25 34 70v4q-42 -4 -100 -119l-87 -312h-128l95 328q24 80 24 95q0 14 -11 14q-49 0 -95 -132l-24 10q27 77 57.5 116.5t79.5 39.5q38 0 67.5 -22.5t30.5 -76.5h2q25 47 51.5 73t61.5 26q36 0 56 -24.5 t20 -59.5z"/>
<glyph glyph-name="lozenge" horiz-adv-x="359" unicode="◊" d="M286 646q0 38 -12 38q-19 0 -41.5 -46.5t-33.5 -109.5q44 12 65.5 44.5t21.5 73.5zM364 640q0 -101 -168 -129q-6 -36 -6 -78q0 -53 30 -53q66 0 112 97l16 -9q-56 -117 -139 -117q-50 0 -81 31.5t-31 91.5q0 80 56 154t141 74q31 0 50.5 -17t19.5 -45z"/>
</font>
</defs>
</svg>
